<?xml version="1.0" encoding="UTF-8"?>
<!-- Generator: Adobe Illustrator 28.0.0, SVG Export Plug-In . SVG Version: 6.00 Build 0)  -->
<svg xmlns="http://www.w3.org/2000/svg" xmlns:xlink="http://www.w3.org/1999/xlink" version="1.1" id="Layer_1" x="0px" y="0px" viewBox="0 0 217.6 217.6" style="enable-background:new 0 0 217.6 217.6;" xml:space="preserve">
<style type="text/css">
	.st0{fill:#4D4D4F;}
</style>
<path class="st0" d="M152.5,162.9c0,0.3,0,0.6,0,0.8c0,0.3,0,0.6-0.1,0.8c0,0.3,0,0.6-0.1,0.8c0,0.3-0.1,0.6-0.1,0.8  c0,0.3-0.1,0.6-0.1,0.8c-0.1,0.3-0.1,0.6-0.1,0.8c-0.1,0.3-0.1,0.6-0.2,0.8c-0.1,0.3-0.1,0.6-0.2,0.8c-0.1,0.3-0.1,0.6-0.2,0.8  c-0.1,0.3-0.1,0.6-0.2,0.8c-0.1,0.3-0.2,0.6-0.3,0.8c-0.1,0.3-0.2,0.6-0.3,0.8c-0.1,0.3-0.2,0.6-0.3,0.8c-0.1,0.3-0.2,0.6-0.4,0.8  c-0.1,0.3-0.3,0.6-0.4,0.8c-0.1,0.3-0.3,0.6-0.5,0.8c-0.2,0.3-0.3,0.6-0.5,0.8c-0.2,0.3-0.3,0.6-0.5,0.8s-0.4,0.6-0.6,0.8  c-0.2,0.3-0.4,0.6-0.6,0.8c-0.2,0.3-0.5,0.6-0.7,0.8c-0.3,0.3-0.5,0.6-0.7,0.8c-0.3,0.3-0.6,0.6-0.8,0.8c-0.3,0.3-0.6,0.6-0.9,0.8  c-0.3,0.3-0.6,0.6-1,0.8c-0.4,0.3-0.7,0.6-1.1,0.8c-0.4,0.3-0.8,0.6-1.2,0.8c-0.5,0.3-0.9,0.6-1.4,0.8c-0.5,0.3-1,0.6-1.6,0.8  c-0.2,0.1-0.5,0.2-0.7,0.3c0.5-0.1,0.9-0.2,1.3-0.3c0.9-0.3,1.8-0.5,2.7-0.8c0.8-0.3,1.5-0.5,2.2-0.8c0.6-0.3,1.3-0.5,1.9-0.8  c0.6-0.3,1.1-0.5,1.7-0.8c0.5-0.3,1-0.5,1.5-0.8c0.5-0.3,0.9-0.5,1.4-0.8c0.4-0.3,0.8-0.5,1.2-0.8c0.4-0.3,0.7-0.5,1.1-0.8  c0.4-0.3,0.7-0.5,1.1-0.8c0.3-0.3,0.6-0.6,0.9-0.8c0.3-0.3,0.6-0.5,0.9-0.8c0.3-0.3,0.5-0.6,0.8-0.8c0.3-0.3,0.5-0.5,0.8-0.8  c0.3-0.3,0.5-0.5,0.7-0.8c0.2-0.3,0.5-0.6,0.7-0.8c0.2-0.3,0.5-0.5,0.6-0.8c0.2-0.3,0.4-0.6,0.6-0.8c0.2-0.3,0.4-0.5,0.6-0.8  c0.2-0.3,0.4-0.5,0.5-0.8c0.2-0.3,0.3-0.6,0.5-0.8c0.2-0.3,0.3-0.5,0.5-0.8c0.1-0.3,0.3-0.6,0.5-0.8c0.1-0.3,0.3-0.6,0.4-0.8  c0.1-0.3,0.3-0.5,0.4-0.8c0.1-0.3,0.3-0.5,0.4-0.8c0.1-0.3,0.2-0.6,0.3-0.8c0.1-0.3,0.2-0.6,0.3-0.8c0.1-0.3,0.2-0.5,0.3-0.8  c0.1-0.3,0.2-0.6,0.3-0.8c0.1-0.3,0.2-0.6,0.3-0.8c0.1-0.3,0.2-0.5,0.3-0.8c0.1-0.3,0.2-0.5,0.3-0.8c0.1-0.3,0.1-0.6,0.2-0.8  c0.1-0.3,0.1-0.6,0.2-0.8c0.1-0.3,0.1-0.5,0.2-0.8c0.1-0.3,0.1-0.6,0.2-0.8c0.1-0.3,0.1-0.6,0.1-0.8s0.1-0.6,0.1-0.8  c0.1-0.3,0.1-0.5,0.1-0.8c0.1-0.3,0.1-0.5,0.1-0.8c0-0.3,0.1-0.6,0.1-0.8c0-0.3,0.1-0.6,0.1-0.8c0-0.3,0.1-0.6,0.1-0.8  c0-0.3,0.1-0.5,0.1-0.8c0-0.3,0.1-0.6,0.1-0.8c0-0.3,0-0.6,0.1-0.8c0-0.3,0-0.6,0.1-0.8c0-0.3,0.1-0.5,0.1-0.8  c0-0.3,0.1-0.5,0.1-0.8c0-0.3,0-0.6,0-0.8c0-0.3,0-0.6,0-0.8c0-0.3,0-0.6,0-0.8c0-0.3,0-0.5,0-0.8c0-0.3,0-0.5,0-0.8  c0-0.3,0-0.6,0-0.8c0-0.3,0-0.6,0-0.8c0-0.3,0-0.6,0-0.8c0-0.3,0-0.6,0-0.8c0-0.3,0-0.5,0-0.8c0-0.3,0-0.6,0-0.8s0-0.6-0.1-0.8  c0-0.3,0-0.6-0.1-0.8c0-0.3,0-0.6-0.1-0.8c0-0.3,0-0.5-0.1-0.8c0-0.3,0-0.5-0.1-0.8c0-0.3-0.1-0.6-0.1-0.8s-0.1-0.6-0.1-0.8  c0-0.3-0.1-0.6-0.1-0.8c0-0.3-0.1-0.6-0.1-0.8c0-0.3-0.1-0.5-0.1-0.8s-0.1-0.5-0.1-0.8c0-0.3-0.1-0.6-0.1-0.8c0-0.3-0.1-0.6-0.1-0.8  c0-0.3-0.1-0.6-0.1-0.8c0-0.3-0.1-0.6-0.1-0.8c0-0.3-0.1-0.6-0.1-0.8c0-0.3-0.1-0.5-0.1-0.8c0-0.3-0.1-0.6-0.1-0.8s-0.1-0.6-0.1-0.8  c-0.1-0.3-0.1-0.6-0.1-0.8c-0.1-0.3-0.1-0.6-0.1-0.8c-0.1-0.3-0.1-0.6-0.1-0.8c-0.1-0.3-0.1-0.5-0.1-0.8c-0.1-0.3-0.1-0.5-0.1-0.8  c-0.1-0.3-0.1-0.6-0.2-0.8c-0.1-0.3-0.1-0.6-0.2-0.8s-0.1-0.6-0.2-0.8c-0.1-0.3-0.1-0.6-0.2-0.8c-0.1-0.3-0.1-0.6-0.2-0.8  c-0.1-0.3-0.1-0.5-0.2-0.8c-0.1-0.3-0.1-0.5-0.2-0.8c-0.1-0.3-0.1-0.6-0.2-0.8c-0.1-0.3-0.1-0.6-0.2-0.8c-0.1-0.3-0.1-0.6-0.2-0.8  c-0.1-0.3-0.1-0.6-0.2-0.8c-0.1-0.3-0.1-0.6-0.2-0.8c-0.1-0.3-0.1-0.6-0.2-0.8c-0.1-0.3-0.1-0.5-0.2-0.8c0-0.1-0.1-0.2-0.1-0.4  c0,0.1,0,0.3,0,0.4c0,0.3,0,0.6,0,0.8s0,0.5,0,0.8c0,0.3,0,0.6,0,0.8c0,0.3,0,0.6,0,0.8c0,0.3,0,0.5,0,0.8c0,0.3,0,0.6,0,0.8  c0,0.3,0,0.6,0,0.8c0,0.3,0,0.6,0,0.8s0,0.6,0,0.8s0,0.6,0,0.8c0,0.3,0,0.6,0,0.8s0,0.6,0,0.8c0,0.3,0,0.6,0,0.8c0,0.3,0,0.6,0,0.8  c0,0.3,0,0.6,0,0.8c0,0.3,0,0.6-0.1,0.8c0,0.3-0.1,0.6-0.1,0.8c0,0.3,0,0.6-0.1,0.8c0,0.3-0.1,0.6-0.1,0.8c0,0.3-0.1,0.6-0.1,0.8  s-0.1,0.6-0.1,0.8s-0.1,0.6-0.1,0.8c0,0.3-0.1,0.6-0.1,0.8c0,0.3-0.1,0.6-0.1,0.8c-0.1,0.3-0.1,0.6-0.1,0.8  c-0.1,0.3-0.1,0.6-0.2,0.8c-0.1,0.3-0.1,0.6-0.2,0.8c-0.1,0.3-0.1,0.6-0.2,0.8c-0.1,0.3-0.1,0.6-0.2,0.8c-0.1,0.3-0.1,0.6-0.2,0.8  c-0.1,0.3-0.2,0.6-0.3,0.8c-0.1,0.3-0.2,0.6-0.3,0.8c-0.1,0.3-0.2,0.6-0.3,0.8c-0.1,0.3-0.3,0.6-0.4,0.8c-0.2,0.3-0.3,0.6-0.5,0.8  c-0.2,0.3-0.4,0.6-0.6,0.8c-0.3,0.3-0.6,0.6-0.9,0.8c-0.5,0.4-1,0.7-1.6,0.8c-0.5,0.1-1,0.2-1.5,0.1c0,0,0-0.1,0-0.1  c0.1-0.3,0.1-0.6,0.2-0.8c0.1-0.3,0.1-0.6,0.2-0.8c0.1-0.3,0.1-0.6,0.2-0.8c0.1-0.3,0.1-0.6,0.2-0.8c0.1-0.3,0.1-0.6,0.2-0.8  c0.1-0.3,0.1-0.6,0.2-0.8c0.1-0.3,0.1-0.6,0.2-0.8c0.1-0.3,0.1-0.6,0.1-0.8c0.1-0.3,0.1-0.6,0.1-0.8c0.1-0.3,0.1-0.6,0.1-0.8  c0.1-0.3,0.1-0.6,0.1-0.8c0-0.3,0.1-0.6,0.1-0.8c0-0.3,0.1-0.6,0.1-0.8c0-0.3,0.1-0.6,0.1-0.8c0-0.3,0.1-0.6,0.1-0.8  c0-0.3,0-0.6,0.1-0.8c0-0.3,0-0.6,0.1-0.8c0-0.3,0.1-0.6,0.1-0.8c0-0.3,0.1-0.6,0.1-0.8c0-0.3,0-0.6,0-0.8c0-0.3,0-0.6,0-0.8  c0-0.3,0-0.6,0-0.8s0-0.6,0-0.8c0-0.3,0-0.6,0-0.8c0-0.3,0-0.6,0-0.8c0-0.3,0-0.6,0-0.8c0-0.3,0-0.6,0-0.8c0-0.3,0-0.6,0-0.8  c0-0.3,0-0.6,0-0.8c0-0.3,0-0.6,0-0.8c0-0.3,0-0.6,0-0.8c0-0.3-0.1-0.6-0.1-0.8c0-0.3-0.1-0.6-0.1-0.8c0-0.3-0.1-0.6-0.1-0.8  s-0.1-0.6-0.1-0.8c0-0.3-0.1-0.6-0.1-0.8c0-0.3-0.1-0.6-0.1-0.8c0-0.3-0.1-0.6-0.1-0.8c0-0.3-0.1-0.6-0.1-0.8c0-0.3-0.1-0.6-0.1-0.8  c-0.1-0.3-0.1-0.6-0.1-0.8c-0.1-0.3-0.1-0.6-0.1-0.8c-0.1-0.3-0.1-0.6-0.1-0.8c-0.1-0.3-0.1-0.6-0.2-0.8c-0.1-0.3-0.1-0.6-0.2-0.8  c-0.1-0.3-0.1-0.6-0.2-0.8c-0.1-0.3-0.1-0.6-0.2-0.8c-0.1-0.3-0.1-0.6-0.2-0.8c-0.1-0.3-0.1-0.6-0.2-0.8c-0.1-0.3-0.1-0.6-0.2-0.8  c-0.1-0.3-0.1-0.6-0.2-0.8c-0.1-0.3-0.1-0.6-0.2-0.8c-0.1-0.3-0.1-0.6-0.2-0.8c-0.1-0.3-0.1-0.6-0.2-0.8c-0.1-0.3-0.2-0.6-0.3-0.8  c-0.1-0.3-0.2-0.6-0.3-0.8c-0.1-0.3-0.2-0.6-0.3-0.8c-0.1-0.3-0.2-0.6-0.3-0.8c-0.1-0.3-0.2-0.6-0.3-0.8c-0.1-0.3-0.2-0.6-0.3-0.8  s-0.2-0.6-0.3-0.8c-0.1-0.3-0.2-0.6-0.3-0.8c-0.1-0.3-0.2-0.6-0.3-0.8c-0.1-0.3-0.2-0.6-0.3-0.8c-0.1-0.3-0.2-0.6-0.3-0.8  c-0.1-0.3-0.3-0.6-0.4-0.8c-0.1-0.3-0.3-0.6-0.4-0.8s-0.3-0.6-0.4-0.8c-0.1-0.3-0.3-0.6-0.4-0.8c-0.1-0.3-0.3-0.6-0.4-0.8  c-0.1-0.3-0.3-0.6-0.4-0.8c-0.1-0.3-0.3-0.6-0.5-0.8s-0.3-0.6-0.5-0.8c-0.2-0.3-0.3-0.6-0.5-0.8c-0.2-0.3-0.3-0.6-0.5-0.8  c-0.2-0.3-0.4-0.6-0.5-0.8c-0.2-0.3-0.4-0.6-0.5-0.8c-0.2-0.3-0.4-0.6-0.6-0.8c-0.2-0.3-0.4-0.6-0.6-0.8c-0.2-0.3-0.4-0.6-0.6-0.8  c-0.2-0.3-0.5-0.6-0.7-0.8c-0.2-0.3-0.5-0.6-0.7-0.8c-0.3-0.3-0.5-0.6-0.7-0.8c-0.3-0.3-0.5-0.6-0.8-0.8c-0.3-0.3-0.5-0.6-0.8-0.8  c-0.3-0.3-0.6-0.6-0.9-0.8c-0.3-0.3-0.6-0.6-0.9-0.8c-0.3-0.3-0.7-0.6-1.1-0.8c-0.4-0.3-0.7-0.6-1.1-0.8c-0.5-0.3-0.9-0.6-1.4-0.8  c-0.5-0.3-1-0.6-1.5-0.8c-0.6-0.3-1.2-0.6-1.8-0.8c-0.8-0.3-1.6-0.6-2.4-0.8c-1.9-0.6-4-0.8-6-0.8c-0.2,0-0.4,0-0.6,0c0,0,0,0,0,0  c0.2,0.3,0.3,0.6,0.5,0.8c0.2,0.3,0.4,0.6,0.5,0.8c0.2,0.3,0.3,0.6,0.5,0.8c0.1,0.3,0.3,0.6,0.4,0.8c0.1,0.3,0.3,0.6,0.4,0.8  c0.1,0.3,0.3,0.6,0.4,0.8c0.1,0.3,0.2,0.6,0.3,0.8c0.1,0.3,0.2,0.6,0.3,0.8c0.1,0.3,0.2,0.6,0.3,0.8c0.1,0.3,0.2,0.6,0.3,0.8  c0.1,0.3,0.1,0.6,0.2,0.8c0.1,0.3,0.1,0.6,0.2,0.8c0.1,0.3,0.1,0.6,0.2,0.8c0.1,0.3,0.1,0.6,0.1,0.8c0,0.3,0.1,0.6,0.1,0.8  c0,0.3,0.1,0.6,0.1,0.8c0,0.3,0,0.6,0,0.8c0,0.3,0,0.6,0,0.8c0,0.3,0,0.6-0.1,0.8c0,0.3,0,0.6-0.1,0.8c0,0.3-0.1,0.6-0.1,0.8  c-0.1,0.3-0.1,0.6-0.1,0.8c-0.1,0.3-0.1,0.6-0.2,0.8c-0.1,0.3-0.1,0.6-0.2,0.8c-0.1,0.3-0.2,0.6-0.3,0.8c-0.1,0.3-0.3,0.6-0.4,0.8  c-0.1,0.3-0.3,0.6-0.5,0.8c-0.2,0.3-0.4,0.6-0.6,0.8c-0.3,0.3-0.6,0.6-0.9,0.8c-0.6,0.5-1.3,0.8-2.1,0.8c0,0,0,0-0.1,0  c-0.1,0-0.1,0-0.2,0c-1.1,0-2.1-0.3-3-0.8c-0.4-0.2-0.8-0.5-1.1-0.8c-0.3-0.3-0.5-0.5-0.8-0.8c-0.2-0.3-0.4-0.5-0.6-0.8  c-0.2-0.3-0.4-0.5-0.6-0.8c-0.2-0.3-0.3-0.5-0.5-0.8c-0.1-0.3-0.3-0.5-0.4-0.8c-0.1-0.3-0.3-0.5-0.4-0.8c-0.1-0.3-0.2-0.6-0.3-0.8  c-0.1-0.3-0.2-0.5-0.3-0.8c-0.1-0.3-0.2-0.6-0.3-0.8c-0.1-0.3-0.2-0.5-0.3-0.8c-0.1-0.3-0.2-0.6-0.3-0.8c-0.1-0.3-0.1-0.6-0.2-0.8  s-0.1-0.5-0.2-0.8c-0.1-0.3-0.1-0.6-0.2-0.8c-0.1-0.3-0.1-0.5-0.2-0.8c-0.1-0.3-0.1-0.6-0.2-0.8c-0.1-0.3-0.1-0.6-0.2-0.8  c-0.1-0.3-0.1-0.6-0.1-0.8c-0.1-0.3-0.1-0.6-0.1-0.8c-0.1-0.3-0.1-0.6-0.1-0.8c0-0.3-0.1-0.6-0.1-0.8c0-0.3-0.1-0.6-0.1-0.8  c0-0.3-0.1-0.6-0.1-0.8c0-0.3-0.1-0.6-0.1-0.8c0-0.3-0.1-0.6-0.1-0.8c0-0.3-0.1-0.6-0.1-0.8c0-0.3,0-0.6-0.1-0.8  c0-0.3-0.1-0.6-0.1-0.8s-0.1-0.6-0.1-0.8c0-0.3,0-0.6-0.1-0.8c0-0.3,0-0.6-0.1-0.8c0-0.3,0-0.6,0-0.8c0-0.3,0-0.6,0-0.8  c0-0.3,0-0.6,0-0.8c0-0.3,0-0.6,0-0.8c0-0.3,0-0.6,0-0.8c0-0.3,0-0.6,0-0.8c0-0.3,0-0.6,0-0.8c0-0.3,0-0.6,0-0.8s0-0.6,0-0.8  c0-0.3,0-0.6,0-0.8c0-0.3,0-0.6,0-0.8c0-0.3,0-0.6,0-0.8c0-0.3,0-0.6,0.1-0.8c0-0.3,0-0.6,0.1-0.8c0-0.3,0-0.6,0.1-0.8  c0-0.3,0.1-0.6,0.1-0.8c0-0.3,0.1-0.6,0.1-0.8c0-0.3,0.1-0.6,0.1-0.8c0-0.3,0.1-0.6,0.1-0.8c0-0.3,0.1-0.6,0.1-0.8  c0-0.3,0.1-0.6,0.1-0.8c0-0.3,0.1-0.6,0.1-0.8c0.1-0.3,0.1-0.6,0.1-0.8c0.1-0.3,0.1-0.6,0.1-0.8c0.1-0.3,0.1-0.6,0.2-0.8  c0.1-0.3,0.1-0.6,0.2-0.8c0.1-0.3,0.1-0.6,0.2-0.8c0.1-0.3,0.1-0.6,0.2-0.8c0.1-0.3,0.2-0.6,0.3-0.8c0.1-0.3,0.2-0.6,0.3-0.8  c0.1-0.3,0.2-0.6,0.4-0.8c0.1-0.3,0.3-0.6,0.5-0.8c-1.2,0.3-2.3,0.5-3.4,0.8c-0.9,0.3-1.8,0.5-2.7,0.8c-0.8,0.3-1.5,0.5-2.2,0.8  c-0.6,0.3-1.3,0.5-1.9,0.8c-0.6,0.3-1.1,0.5-1.7,0.8c-0.5,0.3-1,0.5-1.5,0.8c-0.5,0.3-0.9,0.5-1.3,0.8c-0.4,0.3-0.8,0.5-1.2,0.8  c-0.4,0.3-0.8,0.5-1.1,0.8c-0.3,0.3-0.6,0.6-1,0.8c-0.3,0.3-0.6,0.6-0.9,0.8c-0.3,0.3-0.6,0.5-0.8,0.8s-0.5,0.6-0.8,0.8  c-0.3,0.3-0.5,0.6-0.7,0.8s-0.5,0.6-0.6,0.8c-0.2,0.3-0.4,0.6-0.6,0.8c-0.2,0.3-0.4,0.6-0.6,0.8c-0.2,0.3-0.3,0.6-0.5,0.8  c-0.2,0.3-0.3,0.6-0.5,0.8c-0.2,0.3-0.3,0.6-0.5,0.8c-0.1,0.3-0.3,0.6-0.4,0.8c-0.1,0.3-0.3,0.6-0.4,0.8c-0.1,0.3-0.3,0.6-0.4,0.8  c-0.1,0.3-0.2,0.6-0.3,0.8c-0.1,0.3-0.2,0.6-0.3,0.8c-0.1,0.3-0.2,0.6-0.3,0.8c-0.1,0.3-0.2,0.6-0.3,0.8c-0.1,0.3-0.2,0.6-0.2,0.8  c-0.1,0.3-0.1,0.6-0.2,0.8c-0.1,0.3-0.1,0.6-0.2,0.8c-0.1,0.3-0.1,0.6-0.2,0.8c-0.1,0.3-0.1,0.6-0.1,0.8c-0.1,0.3-0.1,0.6-0.1,0.8  c0,0.3-0.1,0.6-0.1,0.8s-0.1,0.6-0.1,0.8c0,0.3-0.1,0.6-0.1,0.8c0,0.3,0,0.6-0.1,0.8c0,0.3,0,0.6,0,0.8c0,0.3,0,0.6,0,0.8  c0,0.3,0,0.6,0,0.8c0,0.3,0,0.6,0,0.8c0,0.3,0,0.6,0.1,0.8c0,0.3,0,0.6,0.1,0.8c0,0.3,0.1,0.6,0.1,0.8s0.1,0.6,0.1,0.8  c0,0.3,0.1,0.6,0.1,0.8c0.1,0.3,0.1,0.6,0.1,0.8c0.1,0.3,0.1,0.6,0.2,0.8c0.1,0.3,0.1,0.6,0.2,0.8c0.1,0.3,0.1,0.6,0.2,0.8l0,0  c0.1,0.3,0.2,0.6,0.3,0.8c0.1,0.3,0.2,0.6,0.3,0.8c0.1,0.3,0.2,0.6,0.3,0.8c0.1,0.3,0.2,0.6,0.3,0.8c0.1,0.3,0.2,0.6,0.3,0.8  c0.1,0.3,0.2,0.6,0.3,0.8c0.1,0.3,0.2,0.6,0.4,0.8c0.1,0.3,0.2,0.6,0.4,0.8c0.1,0.3,0.3,0.6,0.4,0.8c0.1,0.3,0.3,0.6,0.4,0.8  c0.1,0.3,0.3,0.6,0.4,0.8c0.1,0.3,0.3,0.6,0.4,0.8c0.1,0.3,0.3,0.6,0.4,0.8c0.1,0.3,0.3,0.6,0.4,0.8c0.1,0.3,0.3,0.6,0.4,0.8  c0.1,0.3,0.3,0.6,0.4,0.8c0.1,0.3,0.3,0.6,0.4,0.8c0.1,0.3,0.3,0.6,0.4,0.8c0.1,0.3,0.3,0.6,0.4,0.8c0.1,0.3,0.3,0.6,0.4,0.8  c0.1,0.3,0.3,0.6,0.4,0.8c0.1,0.3,0.3,0.6,0.4,0.8c0.1,0.3,0.2,0.6,0.4,0.8c0.1,0.3,0.2,0.6,0.3,0.8c0.1,0.3,0.2,0.6,0.3,0.8  c0.1,0.3,0.2,0.6,0.3,0.8c0.1,0.3,0.2,0.6,0.3,0.8c0.1,0.3,0.1,0.6,0.2,0.8c0.1,0.3,0.1,0.6,0.2,0.8c0.1,0.3,0.1,0.6,0.1,0.8  c0,0.3,0.1,0.6,0.1,0.8c0,0.3,0,0.6,0,0.8c0,0.3-0.1,0.6-0.1,0.8c-0.1,0.3-0.1,0.6-0.2,0.8c-0.1,0.3-0.2,0.6-0.3,0.8  c-0.1,0.3-0.3,0.6-0.5,0.8s-0.4,0.6-0.7,0.8c-0.3,0.3-0.6,0.6-0.9,0.8c-0.4,0.3-0.8,0.6-1.4,0.8c-0.6,0.3-1.2,0.6-1.9,0.8  c-0.5,0.2-1,0.3-1.5,0.5c-1.2,0.3-2.3,0.1-3.2-0.5c-0.4-0.2-0.7-0.5-1-0.8c-0.3-0.3-0.5-0.5-0.8-0.8c-0.2-0.3-0.5-0.5-0.7-0.8  c-0.2-0.3-0.4-0.5-0.6-0.8c-0.2-0.3-0.4-0.5-0.6-0.8c-0.2-0.3-0.3-0.5-0.5-0.8c-0.2-0.3-0.3-0.5-0.5-0.8c-0.2-0.3-0.3-0.6-0.5-0.8  c-0.2-0.3-0.3-0.6-0.5-0.8c-0.2-0.3-0.3-0.6-0.5-0.8c-0.2-0.3-0.3-0.6-0.5-0.8c-0.2-0.3-0.3-0.6-0.5-0.8c-0.2-0.3-0.3-0.6-0.5-0.8  c-0.2-0.3-0.4-0.6-0.5-0.8c-0.2-0.3-0.4-0.6-0.6-0.8c-0.2-0.3-0.4-0.6-0.6-0.8c-0.2-0.3-0.4-0.6-0.6-0.8s-0.5-0.6-0.7-0.8  c-0.3-0.3-0.5-0.6-0.7-0.8c-0.3-0.3-0.5-0.6-0.8-0.8c-0.3-0.3-0.6-0.6-0.9-0.8c-0.3-0.3-0.7-0.6-1-0.8c-0.4-0.3-0.8-0.6-1.2-0.8  c-0.5-0.3-0.9-0.6-1.4-0.8c-0.6-0.3-1.2-0.6-1.8-0.8c-1-0.4-2-0.6-3.1-0.8c-2.1-0.4-4.4-0.4-7.1,0c-1.2,0.2-2.5,0.5-3.9,0.8  c0,0,0,0-0.1,0c0.6,0.3,1.1,0.5,1.6,0.8c0.5,0.3,1,0.5,1.4,0.8c0.4,0.3,0.8,0.5,1.2,0.8c0.3,0.3,0.6,0.6,0.9,0.8  c0.3,0.3,0.6,0.5,0.9,0.8c0.3,0.3,0.5,0.6,0.7,0.8c0.2,0.3,0.5,0.5,0.6,0.8c0.2,0.3,0.4,0.6,0.5,0.8c0.2,0.3,0.3,0.5,0.5,0.8  c0.1,0.3,0.3,0.5,0.5,0.8c0.1,0.3,0.2,0.6,0.3,0.8c0.1,0.3,0.3,0.5,0.3,0.8c0.1,0.3,0.2,0.6,0.3,0.8c0.1,0.3,0.2,0.6,0.2,0.8  c0.1,0.3,0.2,0.5,0.2,0.8c0.1,0.3,0.1,0.6,0.2,0.8c0.1,0.3,0.1,0.6,0.1,0.8c0.1,0.3,0.1,0.5,0.1,0.8c0,0.3,0.1,0.6,0.1,0.8  c0,0.3,0.1,0.6,0.1,0.8c0,0.3,0.1,0.5,0.1,0.8c0,0.3,0,0.6,0,0.8c0,0.3,0,0.6,0,0.8c0,0.3,0,0.5,0,0.8s0,0.6,0,0.8  c0,0.3,0,0.6,0,0.8c0,0.3,0,0.6,0,0.8c0,0.3,0,0.6,0,0.8c0,0.3,0,0.6,0,0.8s0,0.6,0,0.8c0,0.3,0,0.6,0,0.8c0,0.3,0,0.6-0.1,0.8  c0,0.3,0,0.6-0.1,0.8c0,0.3,0,0.6-0.1,0.8c0,0.3,0,0.6-0.1,0.8c0,0.3-0.1,0.6-0.1,0.8s-0.1,0.6-0.1,0.8c0,0.3-0.1,0.6-0.1,0.8  c0,0.3-0.1,0.6-0.1,0.8c0,0.3-0.1,0.6-0.1,0.8c0,0.3-0.1,0.6-0.1,0.8c0,0.3-0.1,0.6-0.1,0.8c0,0.3-0.1,0.6-0.1,0.8  c0,0.3-0.1,0.6-0.1,0.8c0,0.3-0.1,0.6-0.1,0.8c0,0.3-0.1,0.6-0.1,0.8c0,0.3-0.1,0.6-0.1,0.8c0,0.3-0.1,0.6-0.1,0.8  c0,0.3-0.1,0.6-0.1,0.8c0,0.3-0.1,0.6-0.1,0.8c0,0.3-0.1,0.6-0.1,0.8c0,0.3-0.1,0.6-0.1,0.8c0,0.3-0.1,0.6-0.1,0.8  c0,0.3-0.1,0.6-0.1,0.8c0,0.3-0.1,0.6-0.1,0.8c0,0.3,0,0.6-0.1,0.8c0,0.3,0,0.6-0.1,0.8c0,0.3-0.1,0.6-0.1,0.8c0,0.3,0,0.6-0.1,0.8  c0,0.3,0,0.6-0.1,0.8c0,0.3,0,0.6-0.1,0.8c0,0.3,0,0.6-0.1,0.8c0,0.3,0,0.6,0,0.8c0,0.3,0,0.6,0,0.8c0,0.3,0,0.6,0,0.8  c0,0.3,0,0.6,0,0.8c0,0.3,0,0.6,0,0.8c0,0.3,0,0.6,0,0.8c0,0.3,0,0.6,0,0.8c0,0.3,0,0.6,0,0.8c0,0.3,0,0.6,0,0.8  c0,0.3,0,0.6,0.1,0.8c0,0.3,0,0.6,0.1,0.8c0,0.3,0,0.6,0.1,0.8c0,0.3,0,0.6,0.1,0.8c0,0.3,0.1,0.6,0.1,0.8c0,0.3,0.1,0.6,0.1,0.8  c0,0.3,0.1,0.6,0.1,0.8c0,0.3,0.1,0.6,0.1,0.8c0,0.3,0.1,0.6,0.1,0.8c0,0.3,0.1,0.6,0.1,0.8c0.1,0.3,0.1,0.6,0.1,0.8  s0.1,0.6,0.1,0.8c0.1,0.3,0.1,0.6,0.2,0.8c0.1,0.3,0.1,0.6,0.2,0.8c0.1,0.3,0.1,0.6,0.2,0.8c0.1,0.3,0.1,0.6,0.2,0.8  c0.1,0.3,0.2,0.6,0.2,0.8c0.1,0.3,0.2,0.6,0.3,0.8c0.1,0.3,0.2,0.6,0.3,0.8c0.1,0.3,0.2,0.6,0.3,0.8c0.1,0.3,0.2,0.6,0.3,0.8  c0.1,0.3,0.2,0.6,0.3,0.8c0.1,0.3,0.2,0.6,0.3,0.8c0.1,0.3,0.2,0.6,0.3,0.8c0.1,0.3,0.3,0.6,0.4,0.8c0.1,0.3,0.3,0.6,0.4,0.8  c0.1,0.3,0.3,0.6,0.4,0.8c0.1,0.3,0.3,0.6,0.4,0.8c0.1,0.3,0.3,0.6,0.5,0.8c0.2,0.3,0.3,0.6,0.5,0.8c0.2,0.3,0.3,0.6,0.5,0.8  c0.2,0.3,0.3,0.6,0.5,0.8c0.2,0.3,0.4,0.6,0.6,0.8c0.2,0.3,0.4,0.6,0.6,0.8c0.2,0.3,0.4,0.6,0.6,0.8s0.5,0.6,0.7,0.8  c0.2,0.3,0.5,0.6,0.7,0.8c0.3,0.3,0.5,0.6,0.7,0.8c0.3,0.3,0.5,0.5,0.7,0.8c0,0,0,0,0.1,0c0.3,0.3,0.6,0.5,0.9,0.8s0.6,0.6,0.9,0.8  c0.3,0.3,0.6,0.6,0.9,0.8c0.3,0.3,0.6,0.6,0.9,0.8c0.4,0.3,0.8,0.5,1.2,0.8c0.4,0.3,0.8,0.6,1.2,0.8c0.4,0.3,0.8,0.6,1.2,0.8  c0.5,0.3,0.9,0.6,1.4,0.8c0.5,0.3,1,0.6,1.4,0.8c0.5,0.3,1,0.6,1.4,0.8c0.6,0.3,1.2,0.6,1.8,0.8c0.6,0.3,1.2,0.6,1.9,0.8  c0.7,0.3,1.4,0.6,2.1,0.8c0.8,0.3,1.7,0.6,2.5,0.8c0.5,0.2,1,0.3,1.5,0.5c-0.3-0.2-0.5-0.3-0.8-0.5c-0.5-0.3-0.9-0.5-1.4-0.8  c-0.4-0.3-0.7-0.6-1.1-0.8c-0.4-0.3-0.7-0.5-1.1-0.8c-0.3-0.3-0.7-0.5-1-0.8c-0.3-0.3-0.6-0.6-0.9-0.8c-0.3-0.3-0.6-0.5-0.9-0.8  c-0.3-0.3-0.6-0.5-0.9-0.8c-0.3-0.3-0.5-0.6-0.7-0.8s-0.5-0.6-0.7-0.8c-0.3-0.3-0.5-0.5-0.7-0.8c-0.2-0.3-0.5-0.6-0.7-0.8  c-0.2-0.3-0.4-0.6-0.6-0.8s-0.4-0.6-0.6-0.8s-0.4-0.5-0.6-0.8c-0.2-0.3-0.3-0.6-0.5-0.8c-0.2-0.3-0.3-0.6-0.5-0.8  c-0.2-0.3-0.4-0.6-0.5-0.8c-0.2-0.3-0.3-0.6-0.5-0.8c-0.2-0.3-0.3-0.6-0.5-0.8c-0.1-0.3-0.3-0.6-0.5-0.8c-0.1-0.3-0.3-0.6-0.5-0.8  c-0.1-0.3-0.3-0.6-0.4-0.8c-0.1-0.3-0.2-0.6-0.4-0.8c-0.1-0.3-0.3-0.6-0.4-0.8c-0.1-0.3-0.3-0.6-0.4-0.8c-0.1-0.3-0.2-0.6-0.3-0.8  c-0.1-0.3-0.2-0.6-0.3-0.8c-0.1-0.3-0.2-0.6-0.3-0.8c-0.1-0.3-0.2-0.6-0.3-0.8c-0.1-0.3-0.2-0.6-0.3-0.8c-0.1-0.3-0.1-0.6-0.2-0.8  c-0.1-0.3-0.1-0.6-0.2-0.8c-0.1-0.3-0.1-0.6-0.2-0.8c-0.1-0.3-0.1-0.6-0.2-0.8c-0.1-0.3-0.1-0.6-0.1-0.8c-0.1-0.3-0.1-0.6-0.1-0.8  c0-0.3-0.1-0.6-0.1-0.8c0-0.3-0.1-0.6-0.1-0.8c0-0.3,0-0.6-0.1-0.8c0-0.3-0.1-0.6-0.1-0.8c0-0.3-0.1-0.6-0.1-0.8c0-0.3,0-0.6,0-0.8  s0-0.6,0-0.8c0-0.3,0-0.6,0-0.8c0-0.3,0.1-0.6,0.1-0.8c0-0.3,0.1-0.6,0.1-0.8c0.1-0.3,0.1-0.6,0.1-0.8c0.1-0.3,0.2-0.6,0.3-0.8  c0.1-0.3,0.2-0.6,0.3-0.8c0.1-0.3,0.2-0.6,0.3-0.8c0,0,0-0.1,0-0.1c0,0,0,0.1,0,0.1c0.1,0.3,0.3,0.6,0.4,0.8  c0.1,0.3,0.3,0.6,0.4,0.8c0.1,0.3,0.3,0.6,0.5,0.8c0.2,0.3,0.3,0.6,0.5,0.8c0.2,0.3,0.4,0.6,0.6,0.8c0.3,0.3,0.5,0.6,0.8,0.8  c0.4,0.4,0.8,0.6,1.2,0.8c1,0.5,2.1,0.3,3.1,0c0.8-0.3,1.6-0.6,2.5-0.8c0,0,0.1,0,0.1,0c0-0.3,0-0.5-0.1-0.8c0-0.3-0.1-0.6-0.1-0.8  c0-0.3-0.1-0.6-0.1-0.8c0-0.3,0-0.6,0-0.8c0-0.3,0-0.6,0-0.8c0-0.3,0-0.6,0-0.8c0-0.3,0-0.6,0.1-0.8c0-0.3,0-0.6,0.1-0.8  c0-0.3,0-0.6,0.1-0.8c0-0.3,0.1-0.6,0.1-0.8c0-0.3,0.1-0.6,0.1-0.8c0.1-0.3,0.1-0.6,0.2-0.8c0.1-0.3,0.1-0.6,0.2-0.8  c0.1-0.3,0.1-0.6,0.2-0.8c0.1-0.3,0.2-0.6,0.3-0.8c0.1-0.3,0.2-0.6,0.3-0.8c0.1-0.3,0.3-0.6,0.4-0.8c0.1-0.3,0.3-0.6,0.4-0.8  c0.1-0.3,0.3-0.6,0.5-0.8c0.2-0.3,0.4-0.6,0.6-0.8c0.2-0.3,0.4-0.6,0.6-0.8c0.2-0.3,0.5-0.6,0.7-0.8c0.3-0.3,0.5-0.6,0.8-0.8  c0.3-0.3,0.5-0.6,0.8-0.8c0.3-0.3,0.6-0.6,0.9-0.8c0.3-0.3,0.7-0.6,1-0.8c0.4-0.3,0.7-0.6,1.1-0.8c0.4-0.3,0.8-0.6,1.2-0.8  c0.4-0.3,0.8-0.6,1.2-0.8c0.4-0.3,0.8-0.6,1.2-0.8c0.4-0.3,0.8-0.6,1.2-0.8c0.4-0.3,0.8-0.6,1.2-0.8c0.4-0.3,0.8-0.5,1.2-0.8  c0.4-0.3,0.8-0.5,1.1-0.8c0.4-0.3,0.7-0.5,1.1-0.8c0.3-0.3,0.7-0.5,1-0.8c0.3-0.3,0.6-0.5,0.9-0.8c0.3-0.3,0.6-0.5,0.9-0.8  c0.3-0.3,0.5-0.5,0.8-0.8c0.3-0.3,0.5-0.5,0.8-0.8c0.2-0.3,0.5-0.6,0.7-0.8c0.2-0.3,0.4-0.5,0.6-0.8c0.2-0.3,0.4-0.5,0.6-0.8  c0.2-0.3,0.3-0.5,0.5-0.8s0.3-0.5,0.5-0.8c0.1-0.3,0.3-0.5,0.5-0.8c0.1-0.3,0.3-0.5,0.4-0.8c0.1-0.3,0.3-0.5,0.4-0.8  c0.1-0.3,0.2-0.6,0.3-0.8c0.1-0.3,0.2-0.5,0.3-0.8c0.1-0.3,0.2-0.6,0.3-0.8c0.1-0.3,0.2-0.5,0.3-0.8c0.1-0.3,0.2-0.5,0.2-0.8  c0.1-0.3,0.1-0.6,0.2-0.8c0.1-0.3,0.1-0.5,0.2-0.8c0.1-0.3,0.1-0.5,0.2-0.8c0.1-0.3,0.1-0.6,0.1-0.8c0.1-0.3,0.1-0.5,0.1-0.8  c0-0.2,0.1-0.4,0.1-0.6c0.6,0.2,1.1,0.4,1.6,0.6c0.7,0.3,1.4,0.5,2.1,0.8c0.6,0.3,1.2,0.5,1.8,0.8c0.6,0.3,1.1,0.5,1.6,0.8  c0.5,0.3,1,0.5,1.5,0.8c0.5,0.3,0.9,0.6,1.3,0.8c0.4,0.3,0.8,0.5,1.2,0.8c0.4,0.3,0.7,0.6,1,0.8c0.3,0.3,0.7,0.5,1,0.8  c0.3,0.3,0.6,0.6,0.8,0.8c0.3,0.3,0.6,0.6,0.8,0.8c0.3,0.3,0.5,0.6,0.7,0.8c0.2,0.3,0.5,0.6,0.7,0.8c0.2,0.3,0.4,0.6,0.6,0.8  c0.2,0.3,0.4,0.6,0.5,0.8c0.2,0.3,0.3,0.6,0.5,0.8c0.1,0.3,0.3,0.6,0.4,0.8c0.1,0.3,0.3,0.6,0.4,0.8c0.1,0.3,0.2,0.6,0.3,0.8  c0.1,0.3,0.2,0.6,0.3,0.8c0.1,0.3,0.2,0.6,0.2,0.8c0.1,0.3,0.2,0.6,0.2,0.8c0.1,0.3,0.1,0.6,0.2,0.8c0.1,0.3,0.1,0.6,0.2,0.8  c0.1,0.3,0.1,0.6,0.1,0.8c0,0.3,0.1,0.6,0.1,0.8c0,0.3,0.1,0.6,0.1,0.8c0,0.3,0,0.6,0.1,0.8c0,0.3,0,0.6,0.1,0.8c0,0.3,0,0.6,0,0.8  c0,0.3,0,0.6,0,0.8c0,0.3,0,0.6,0,0.8c0,0.3,0,0.6,0,0.8c0,0.3,0,0.6-0.1,0.8c0,0.3-0.1,0.6-0.1,0.8c0,0.3-0.1,0.6-0.1,0.8  c0,0.3-0.1,0.6-0.1,0.8c0,0.3-0.1,0.6-0.1,0.8c0,0.3-0.1,0.6-0.1,0.8c0,0.3-0.1,0.6-0.1,0.8c0,0.3-0.1,0.6-0.1,0.8  c0,0.3-0.1,0.6-0.1,0.8c0,0.3-0.1,0.6-0.1,0.8c0,0.3-0.1,0.6-0.1,0.8c0,0.3-0.1,0.6-0.1,0.8c0,0.3-0.1,0.6-0.1,0.8  c0,0.3-0.1,0.6-0.1,0.8c0,0.3-0.1,0.6-0.1,0.8c0,0.3,0,0.6,0,0.8c0,0.3,0,0.6,0,0.8c0,0.3,0,0.6,0,0.8c0,0.3,0.1,0.6,0.1,0.8  c0,0.3,0.1,0.6,0.1,0.8c0.1,0.3,0.1,0.6,0.3,0.8c0.1,0.3,0.3,0.6,0.4,0.8c0.2,0.3,0.4,0.6,0.6,0.8c0.3,0.3,0.6,0.6,1.1,0.8  c0.6,0.3,1.4,0.6,2.3,0.7c0.2,0,0.5,0.1,0.7,0.1c0.9,0.1,1.8,0.1,2.7,0c0.8-0.1,1.7-0.4,2.5-0.8c0.4-0.2,0.8-0.5,1.1-0.8  c0.3-0.3,0.5-0.5,0.8-0.8c0.2-0.3,0.4-0.5,0.6-0.8c0.2-0.3,0.3-0.5,0.5-0.8c0.1-0.3,0.3-0.5,0.4-0.8c0.1-0.3,0.2-0.5,0.3-0.8  c0.1-0.3,0.2-0.5,0.3-0.8c0.1-0.3,0.2-0.5,0.3-0.8c0.1-0.3,0.2-0.5,0.2-0.8c0.1-0.3,0.1-0.5,0.2-0.8c0-0.1,0.1-0.3,0.1-0.4  c0.1,0.1,0.1,0.3,0.2,0.4c0.1,0.3,0.2,0.6,0.3,0.8c0.1,0.3,0.2,0.6,0.3,0.8c0.1,0.3,0.2,0.6,0.3,0.8c0.1,0.3,0.2,0.6,0.3,0.8  c0.1,0.3,0.2,0.6,0.3,0.8c0.1,0.3,0.2,0.6,0.3,0.8c0.1,0.3,0.2,0.6,0.3,0.8c0.1,0.3,0.2,0.6,0.3,0.8c0.1,0.3,0.2,0.6,0.3,0.8  c0.1,0.3,0.2,0.6,0.3,0.8c0.1,0.3,0.1,0.6,0.2,0.8c0.1,0.3,0.1,0.6,0.2,0.8c0.1,0.3,0.1,0.6,0.2,0.8c0.1,0.3,0.1,0.6,0.2,0.8  s0.1,0.6,0.2,0.8s0.1,0.6,0.2,0.8c0.1,0.3,0.1,0.6,0.1,0.8c0.1,0.3,0.1,0.6,0.1,0.8c0,0.3,0.1,0.6,0.1,0.8c0,0.3,0.1,0.6,0.1,0.8  c0,0.3,0.1,0.6,0.1,0.8c0,0.3,0.1,0.6,0.1,0.8c0,0.3,0,0.6,0,0.8c0,0.3,0,0.6,0,0.8c0,0.3,0,0.6,0,0.8c0,0.3,0,0.6,0,0.8  C152.5,162.3,152.5,162.6,152.5,162.9z"></path>
</svg>
