<?xml version="1.0" encoding="UTF-8" standalone="no"?>
<!DOCTYPE svg PUBLIC "-//W3C//DTD SVG 1.1//EN" "http://www.w3.org/Graphics/SVG/1.1/DTD/svg11.dtd">
<svg width="100%" height="100%" viewBox="0 0 960 960" version="1.1" xmlns="http://www.w3.org/2000/svg" xmlns:xlink="http://www.w3.org/1999/xlink" xml:space="preserve" xmlns:serif="http://www.serif.com/" style="fill-rule:evenodd;clip-rule:evenodd;stroke-linecap:round;stroke-linejoin:round;stroke-miterlimit:1.5;">
    <path d="M112.662,31.85L112.893,31.87L112.962,31.864C114.25,31.78 115.554,31.748 116.87,31.77L117.662,31.79L911.3,60.116C935.944,60.995 956.17,81.109 956.17,106.352L956.17,853.178C956.17,878.421 935.944,898.535 911.3,899.414L117.586,927.742C116.004,927.802 114.441,927.769 112.899,927.668L112.789,927.659L112.368,927.693C109.334,927.918 106.241,927.802 103.14,927.291L102.968,927.261L39.372,919.115C35.865,918.666 32.434,917.754 29.169,916.404L28.471,916.108C19.643,912.259 14.242,906.699 10.334,900.346C8.641,897.595 7.517,895.094 6.632,892.588C5.793,890.211 5.303,888.213 4.925,886.175C4.577,884.3 4.373,882.597 4.225,880.794C4.032,878.454 3.939,875.834 3.939,873.178L3.939,95.883C3.951,93.298 4.05,90.763 4.246,88.485C4.4,86.689 4.611,84.99 4.972,83.105C5.366,81.044 5.877,79.021 6.748,76.617C7.661,74.099 8.818,71.588 10.549,68.838C14.457,62.627 19.835,57.187 28.471,53.422C30.136,52.697 31.849,52.085 33.597,51.592L97.808,33.483L98.216,33.359C103.058,31.927 107.939,31.466 112.662,31.85ZM116.235,71.758L115.786,71.758C112.592,71.89 110.057,74.488 109.939,77.808L109.939,881.489C109.939,884.997 112.637,887.76 116.009,887.772L116.235,887.772L909.873,859.439C913.351,859.315 916.17,856.512 916.17,853.178L916.17,106.352C916.17,103.018 913.351,100.214 909.873,100.09L116.235,71.758ZM89.95,77.255L44.454,90.09C44.178,90.211 43.953,92.85 43.94,96.05L43.94,873.48L43.948,874.337C43.994,877.139 44.203,879.33 44.454,879.439L90.211,885.305C90.032,884.059 89.939,882.784 89.939,881.489L89.939,78.041L89.942,77.647L89.95,77.255ZM224.342,158.607L820.627,174.974C832.924,175.312 842.945,185.279 842.945,197.495L842.945,560.997C842.945,573.287 832.81,583.178 820.439,583.286L224.154,588.48C211.591,588.587 201.475,578.324 201.475,565.703L201.475,181.143C201.475,168.448 211.706,158.26 224.342,158.607ZM223.793,178.598C222.52,178.565 221.475,179.605 221.475,181.143L221.475,565.703C221.475,567.313 222.636,568.491 223.981,568.479L820.265,563.286C821.804,563.273 822.945,562.159 822.945,560.997L822.945,197.495C822.945,196.259 821.69,195.011 820.078,194.967L223.793,178.598Z" style="fill-rule:nonzero;"/>
    <g transform="matrix(1,0,0,1,-21.3399,-16.1413)">
        <ellipse cx="569.955" cy="738.32" rx="138.777" ry="76.9" style="fill:none;stroke:black;stroke-width:19px;"/>
    </g>
</svg>
