<?xml version="1.0" encoding="UTF-8" standalone="no"?>
<!DOCTYPE svg PUBLIC "-//W3C//DTD SVG 1.1//EN" "http://www.w3.org/Graphics/SVG/1.1/DTD/svg11.dtd">
<svg width="100%" height="100%" viewBox="0 0 218 218" version="1.1" xmlns="http://www.w3.org/2000/svg" xmlns:xlink="http://www.w3.org/1999/xlink" xml:space="preserve" xmlns:serif="http://www.serif.com/" style="fill-rule:evenodd;clip-rule:evenodd;stroke-linejoin:round;stroke-miterlimit:2;">
    <path d="M152.5,162.9L152.5,163.7C152.5,164 152.5,164.3 152.4,164.5C152.4,164.8 152.4,165.1 152.3,165.3C152.3,165.6 152.2,165.9 152.2,166.1C152.2,166.4 152.1,166.7 152.1,166.9C152,167.2 152,167.5 152,167.7C151.9,168 151.9,168.3 151.8,168.5C151.7,168.8 151.7,169.1 151.6,169.3C151.5,169.6 151.5,169.9 151.4,170.1C151.3,170.4 151.3,170.7 151.2,170.9C151.1,171.2 151,171.5 150.9,171.7C150.8,172 150.7,172.3 150.6,172.5C150.5,172.8 150.4,173.1 150.3,173.3C150.2,173.6 150.1,173.9 149.9,174.1C149.8,174.4 149.6,174.7 149.5,174.9C149.4,175.2 149.2,175.5 149,175.7C148.8,176 148.7,176.3 148.5,176.5C148.3,176.8 148.2,177.1 148,177.3C147.8,177.5 147.6,177.9 147.4,178.1C147.2,178.4 147,178.7 146.8,178.9C146.6,179.2 146.3,179.5 146.1,179.7C145.8,180 145.6,180.3 145.4,180.5C145.1,180.8 144.8,181.1 144.6,181.3C144.3,181.6 144,181.9 143.7,182.1C143.4,182.4 143.1,182.7 142.7,182.9C142.3,183.2 142,183.5 141.6,183.7C141.2,184 140.8,184.3 140.4,184.5C139.9,184.8 139.5,185.1 139,185.3C138.5,185.6 138,185.9 137.4,186.1C137.2,186.2 136.9,186.3 136.7,186.4C137.2,186.3 137.6,186.2 138,186.1C138.9,185.8 139.8,185.6 140.7,185.3C141.5,185 142.2,184.8 142.9,184.5C143.5,184.2 144.2,184 144.8,183.7C145.4,183.4 145.9,183.2 146.5,182.9C147,182.6 147.5,182.4 148,182.1C148.5,181.8 148.9,181.6 149.4,181.3C149.8,181 150.2,180.8 150.6,180.5C151,180.2 151.3,180 151.7,179.7C152.1,179.4 152.4,179.2 152.8,178.9C153.1,178.6 153.4,178.3 153.7,178.1C154,177.8 154.3,177.6 154.6,177.3C154.9,177 155.1,176.7 155.4,176.5C155.7,176.2 155.9,176 156.2,175.7C156.5,175.4 156.7,175.2 156.9,174.9C157.1,174.6 157.4,174.3 157.6,174.1C157.8,173.8 158.1,173.6 158.2,173.3C158.4,173 158.6,172.7 158.8,172.5C159,172.2 159.2,172 159.4,171.7C159.6,171.4 159.8,171.2 159.9,170.9C160.1,170.6 160.2,170.3 160.4,170.1C160.6,169.8 160.7,169.6 160.9,169.3C161,169 161.2,168.7 161.4,168.5C161.5,168.2 161.7,167.9 161.8,167.7C161.9,167.4 162.1,167.2 162.2,166.9C162.3,166.6 162.5,166.4 162.6,166.1C162.7,165.8 162.8,165.5 162.9,165.3C163,165 163.1,164.7 163.2,164.5C163.3,164.2 163.4,164 163.5,163.7C163.6,163.4 163.7,163.1 163.8,162.9C163.9,162.6 164,162.3 164.1,162.1C164.2,161.8 164.3,161.6 164.4,161.3C164.5,161 164.6,160.8 164.7,160.5C164.8,160.2 164.8,159.9 164.9,159.7C165,159.4 165,159.1 165.1,158.9C165.2,158.6 165.2,158.4 165.3,158.1C165.4,157.8 165.4,157.5 165.5,157.3C165.6,157 165.6,156.7 165.6,156.5C165.6,156.3 165.7,155.9 165.7,155.7C165.8,155.4 165.8,155.2 165.8,154.9C165.9,154.6 165.9,154.4 165.9,154.1C165.9,153.8 166,153.5 166,153.3C166,153 166.1,152.7 166.1,152.5C166.1,152.2 166.2,151.9 166.2,151.7C166.2,151.4 166.3,151.2 166.3,150.9C166.3,150.6 166.4,150.3 166.4,150.1C166.4,149.8 166.4,149.5 166.5,149.3C166.5,149 166.5,148.7 166.6,148.5C166.6,148.2 166.7,148 166.7,147.7C166.7,147.4 166.8,147.2 166.8,146.9L166.8,138.1C166.8,137.9 166.8,137.5 166.7,137.3C166.7,137 166.7,136.7 166.6,136.5C166.6,136.2 166.6,135.9 166.5,135.7C166.5,135.4 166.5,135.2 166.4,134.9C166.4,134.6 166.4,134.4 166.3,134.1C166.3,133.8 166.2,133.5 166.2,133.3C166.2,133.1 166.1,132.7 166.1,132.5C166.1,132.2 166,131.9 166,131.7C166,131.4 165.9,131.1 165.9,130.9C165.9,130.6 165.8,130.4 165.8,130.1C165.8,129.8 165.7,129.6 165.7,129.3C165.7,129 165.6,128.7 165.6,128.5C165.6,128.2 165.5,127.9 165.5,127.7C165.5,127.4 165.4,127.1 165.4,126.9C165.4,126.6 165.3,126.3 165.3,126.1C165.3,125.8 165.2,125.5 165.2,125.3C165.2,125 165.1,124.8 165.1,124.5C165.1,124.2 165,123.9 165,123.7C165,123.5 164.9,123.1 164.9,122.9C164.8,122.6 164.8,122.3 164.8,122.1C164.7,121.8 164.7,121.5 164.7,121.3C164.6,121 164.6,120.7 164.6,120.5C164.5,120.2 164.5,120 164.5,119.7C164.4,119.4 164.4,119.2 164.4,118.9C164.3,118.6 164.3,118.3 164.2,118.1C164.1,117.8 164.1,117.5 164,117.3C163.9,117.1 163.9,116.7 163.8,116.5C163.7,116.2 163.7,115.9 163.6,115.7C163.5,115.4 163.5,115.1 163.4,114.9C163.3,114.6 163.3,114.4 163.2,114.1C163.1,113.8 163.1,113.6 163,113.3C162.9,113 162.9,112.7 162.8,112.5C162.7,112.2 162.7,111.9 162.6,111.7C162.5,111.4 162.5,111.1 162.4,110.9C162.3,110.6 162.3,110.3 162.2,110.1C162.1,109.8 162.1,109.5 162,109.3C161.9,109 161.9,108.7 161.8,108.5C161.7,108.2 161.7,108 161.6,107.7C161.6,107.6 161.5,107.5 161.5,107.3L161.5,119.7C161.5,120 161.5,120.3 161.4,120.5C161.4,120.8 161.3,121.1 161.3,121.3C161.3,121.6 161.3,121.9 161.2,122.1C161.2,122.4 161.1,122.7 161.1,122.9C161.1,123.2 161,123.5 161,123.7C161,123.9 160.9,124.3 160.9,124.5C160.9,124.7 160.8,125.1 160.8,125.3C160.8,125.6 160.7,125.9 160.7,126.1C160.7,126.4 160.6,126.7 160.6,126.9C160.5,127.2 160.5,127.5 160.5,127.7C160.4,128 160.4,128.3 160.3,128.5C160.2,128.8 160.2,129.1 160.1,129.3C160,129.6 160,129.9 159.9,130.1C159.8,130.4 159.8,130.7 159.7,130.9C159.6,131.2 159.6,131.5 159.5,131.7C159.4,132 159.3,132.3 159.2,132.5C159.1,132.8 159,133.1 158.9,133.3C158.8,133.6 158.7,133.9 158.6,134.1C158.5,134.4 158.3,134.7 158.2,134.9C158,135.2 157.9,135.5 157.7,135.7C157.5,136 157.3,136.3 157.1,136.5C156.8,136.8 156.5,137.1 156.2,137.3C155.7,137.7 155.2,138 154.6,138.1C154.1,138.2 153.6,138.3 153.1,138.2L153.1,138.1C153.2,137.8 153.2,137.5 153.3,137.3C153.4,137 153.4,136.7 153.5,136.5C153.6,136.2 153.6,135.9 153.7,135.7C153.8,135.4 153.8,135.1 153.9,134.9C154,134.6 154,134.3 154.1,134.1C154.2,133.8 154.2,133.5 154.3,133.3C154.4,133 154.4,132.7 154.5,132.5C154.6,132.2 154.6,131.9 154.6,131.7C154.7,131.4 154.7,131.1 154.7,130.9C154.8,130.6 154.8,130.3 154.8,130.1C154.9,129.8 154.9,129.5 154.9,129.3C154.9,129 155,128.7 155,128.5C155,128.2 155.1,127.9 155.1,127.7C155.1,127.4 155.2,127.1 155.2,126.9C155.2,126.6 155.3,126.3 155.3,126.1C155.3,125.8 155.3,125.5 155.4,125.3C155.4,125 155.4,124.7 155.5,124.5C155.5,124.2 155.6,123.9 155.6,123.7C155.6,123.4 155.7,123.1 155.7,122.9L155.7,113.3C155.7,113 155.6,112.7 155.6,112.5C155.6,112.2 155.5,111.9 155.5,111.7C155.5,111.4 155.4,111.1 155.4,110.9C155.4,110.7 155.3,110.3 155.3,110.1C155.3,109.8 155.2,109.5 155.2,109.3C155.2,109 155.1,108.7 155.1,108.5C155.1,108.2 155,107.9 155,107.7C155,107.4 154.9,107.1 154.9,106.9C154.9,106.6 154.8,106.3 154.8,106.1C154.7,105.8 154.7,105.5 154.7,105.3C154.6,105 154.6,104.7 154.6,104.5C154.5,104.2 154.5,103.9 154.5,103.7C154.4,103.4 154.4,103.1 154.3,102.9C154.2,102.6 154.2,102.3 154.1,102.1C154,101.8 154,101.5 153.9,101.3C153.8,101 153.8,100.7 153.7,100.5C153.6,100.2 153.6,99.9 153.5,99.7C153.4,99.4 153.4,99.1 153.3,98.9C153.2,98.6 153.2,98.3 153.1,98.1C153,97.8 153,97.5 152.9,97.3C152.8,97 152.8,96.7 152.7,96.5C152.6,96.2 152.6,95.9 152.5,95.7C152.4,95.4 152.4,95.1 152.3,94.9C152.2,94.6 152.1,94.3 152,94.1C151.9,93.8 151.8,93.5 151.7,93.3C151.6,93 151.5,92.7 151.4,92.5C151.3,92.2 151.2,91.9 151.1,91.7C151,91.4 150.9,91.1 150.8,90.9C150.7,90.6 150.6,90.3 150.5,90.1C150.4,89.9 150.3,89.5 150.2,89.3C150.1,89 150,88.7 149.9,88.5C149.8,88.2 149.7,87.9 149.6,87.7C149.5,87.4 149.4,87.1 149.3,86.9C149.2,86.6 149.1,86.3 149,86.1C148.9,85.8 148.7,85.5 148.6,85.3C148.5,85 148.3,84.7 148.2,84.5C148.1,84.3 147.9,83.9 147.8,83.7C147.7,83.4 147.5,83.1 147.4,82.9C147.3,82.6 147.1,82.3 147,82.1C146.9,81.8 146.7,81.5 146.6,81.3C146.5,81 146.3,80.7 146.1,80.5C145.9,80.3 145.8,79.9 145.6,79.7C145.4,79.4 145.3,79.1 145.1,78.9C144.9,78.6 144.8,78.3 144.6,78.1C144.4,77.8 144.2,77.5 144.1,77.3C143.9,77 143.7,76.7 143.6,76.5C143.4,76.2 143.2,75.9 143,75.7C142.8,75.4 142.6,75.1 142.4,74.9C142.2,74.6 142,74.3 141.8,74.1C141.6,73.8 141.3,73.5 141.1,73.3C140.9,73 140.6,72.7 140.4,72.5C140.1,72.2 139.9,71.9 139.7,71.7C139.4,71.4 139.2,71.1 138.9,70.9C138.6,70.6 138.4,70.3 138.1,70.1C137.8,69.8 137.5,69.5 137.2,69.3C136.9,69 136.6,68.7 136.3,68.5C136,68.2 135.6,67.9 135.2,67.7C134.8,67.4 134.5,67.1 134.1,66.9C133.6,66.6 133.2,66.3 132.7,66.1C132.2,65.8 131.7,65.5 131.2,65.3C130.6,65 130,64.7 129.4,64.5C128.6,64.2 127.8,63.9 127,63.7C125.1,63.1 123,62.9 121,62.9L120.4,62.9C120.6,63.2 120.7,63.5 120.9,63.7C121.1,64 121.3,64.3 121.4,64.5C121.6,64.8 121.7,65.1 121.9,65.3C122,65.6 122.2,65.9 122.3,66.1C122.4,66.4 122.6,66.7 122.7,66.9C122.8,67.2 123,67.5 123.1,67.7C123.2,68 123.3,68.3 123.4,68.5C123.5,68.8 123.6,69.1 123.7,69.3C123.8,69.6 123.9,69.9 124,70.1C124.1,70.4 124.2,70.7 124.3,70.9C124.4,71.2 124.4,71.5 124.5,71.7C124.6,72 124.6,72.3 124.7,72.5C124.8,72.8 124.8,73.1 124.9,73.3C125,73.6 125,73.9 125,74.1C125,74.4 125.1,74.7 125.1,74.9C125.1,75.2 125.2,75.5 125.2,75.7L125.2,77.3C125.2,77.6 125.2,77.9 125.1,78.1C125.1,78.4 125.1,78.7 125,78.9C125,79.2 124.9,79.5 124.9,79.7C124.8,80 124.8,80.3 124.8,80.5C124.7,80.8 124.7,81.1 124.6,81.3C124.5,81.6 124.5,81.9 124.4,82.1C124.3,82.4 124.2,82.7 124.1,82.9C124,83.2 123.8,83.5 123.7,83.7C123.6,84 123.4,84.3 123.2,84.5C123,84.8 122.8,85.1 122.6,85.3C122.3,85.6 122,85.9 121.7,86.1C121.1,86.6 120.4,86.9 119.6,86.9L119.3,86.9C118.2,86.9 117.2,86.6 116.3,86.1C115.9,85.9 115.5,85.6 115.2,85.3C114.9,85 114.7,84.8 114.4,84.5C114.2,84.2 114,84 113.8,83.7C113.6,83.4 113.4,83.2 113.2,82.9C113,82.6 112.9,82.4 112.7,82.1C112.6,81.8 112.4,81.6 112.3,81.3C112.2,81 112,80.8 111.9,80.5C111.8,80.2 111.7,79.9 111.6,79.7C111.5,79.4 111.4,79.2 111.3,78.9C111.2,78.6 111.1,78.3 111,78.1C110.9,77.8 110.8,77.6 110.7,77.3C110.6,77 110.5,76.7 110.4,76.5C110.3,76.2 110.3,75.9 110.2,75.7C110.1,75.5 110.1,75.2 110,74.9C109.9,74.6 109.9,74.3 109.8,74.1C109.7,73.8 109.7,73.6 109.6,73.3C109.5,73 109.5,72.7 109.4,72.5C109.3,72.2 109.3,71.9 109.2,71.7C109.1,71.4 109.1,71.1 109.1,70.9C109,70.6 109,70.3 109,70.1C108.9,69.8 108.9,69.5 108.9,69.3C108.9,69 108.8,68.7 108.8,68.5C108.8,68.2 108.7,67.9 108.7,67.7C108.7,67.4 108.6,67.1 108.6,66.9C108.6,66.6 108.5,66.3 108.5,66.1C108.5,65.8 108.4,65.5 108.4,65.3C108.4,65 108.3,64.7 108.3,64.5C108.3,64.2 108.3,63.9 108.2,63.7C108.2,63.4 108.1,63.1 108.1,62.9C108.1,62.7 108,62.3 108,62.1C108,61.8 108,61.5 107.9,61.3C107.9,61 107.9,60.7 107.8,60.5L107.8,50.9C107.8,50.6 107.8,50.3 107.9,50.1C107.9,49.8 107.9,49.5 108,49.3C108,49 108,48.7 108.1,48.5C108.1,48.2 108.2,47.9 108.2,47.7C108.2,47.4 108.3,47.1 108.3,46.9C108.3,46.6 108.4,46.3 108.4,46.1C108.4,45.8 108.5,45.5 108.5,45.3C108.5,45 108.6,44.7 108.6,44.5C108.6,44.2 108.7,43.9 108.7,43.7C108.7,43.4 108.8,43.1 108.8,42.9C108.9,42.6 108.9,42.3 108.9,42.1C109,41.8 109,41.5 109,41.3C109.1,41 109.1,40.7 109.2,40.5C109.3,40.2 109.3,39.9 109.4,39.7C109.5,39.4 109.5,39.1 109.6,38.9C109.7,38.6 109.7,38.3 109.8,38.1C109.9,37.8 110,37.5 110.1,37.3C110.2,37 110.3,36.7 110.4,36.5C110.5,36.2 110.6,35.9 110.8,35.7C110.9,35.4 111.1,35.1 111.3,34.9C110.1,35.2 109,35.4 107.9,35.7C107,36 106.1,36.2 105.2,36.5C104.4,36.8 103.7,37 103,37.3C102.4,37.6 101.7,37.8 101.1,38.1C100.5,38.4 100,38.6 99.4,38.9C98.9,39.2 98.4,39.4 97.9,39.7C97.4,40 97,40.2 96.6,40.5C96.2,40.8 95.8,41 95.4,41.3C95,41.6 94.6,41.8 94.3,42.1C94,42.4 93.7,42.7 93.3,42.9C93,43.2 92.7,43.5 92.4,43.7C92.1,44 91.8,44.2 91.6,44.5C91.4,44.8 91.1,45.1 90.8,45.3C90.5,45.6 90.3,45.9 90.1,46.1C89.9,46.3 89.6,46.7 89.5,46.9C89.3,47.2 89.1,47.5 88.9,47.7C88.7,48 88.5,48.3 88.3,48.5C88.1,48.8 88,49.1 87.8,49.3C87.6,49.6 87.5,49.9 87.3,50.1C87.1,50.4 87,50.7 86.8,50.9C86.7,51.2 86.5,51.5 86.4,51.7C86.3,52 86.1,52.3 86,52.5C85.9,52.8 85.7,53.1 85.6,53.3C85.5,53.6 85.4,53.9 85.3,54.1C85.2,54.4 85.1,54.7 85,54.9C84.9,55.2 84.8,55.5 84.7,55.7C84.6,56 84.5,56.3 84.4,56.5C84.3,56.8 84.2,57.1 84.2,57.3C84.1,57.6 84.1,57.9 84,58.1C83.9,58.4 83.9,58.7 83.8,58.9C83.7,59.2 83.7,59.5 83.6,59.7C83.5,60 83.5,60.3 83.5,60.5C83.4,60.8 83.4,61.1 83.4,61.3C83.4,61.6 83.3,61.9 83.3,62.1C83.3,62.3 83.2,62.7 83.2,62.9C83.2,63.2 83.1,63.5 83.1,63.7C83.1,64 83.1,64.3 83,64.5L83,67.7C83,68 83,68.3 83.1,68.5C83.1,68.8 83.1,69.1 83.2,69.3C83.2,69.6 83.3,69.9 83.3,70.1C83.3,70.3 83.4,70.7 83.4,70.9C83.4,71.2 83.5,71.5 83.5,71.7C83.6,72 83.6,72.3 83.6,72.5C83.7,72.8 83.7,73.1 83.8,73.3C83.9,73.6 83.9,73.9 84,74.1C84.1,74.4 84.1,74.7 84.2,74.9C84.3,75.2 84.4,75.5 84.5,75.7C84.6,76 84.7,76.3 84.8,76.5C84.9,76.8 85,77.1 85.1,77.3C85.2,77.6 85.3,77.9 85.4,78.1C85.5,78.4 85.6,78.7 85.7,78.9C85.8,79.2 85.9,79.5 86,79.7C86.1,80 86.2,80.3 86.4,80.5C86.5,80.8 86.6,81.1 86.8,81.3C86.9,81.6 87.1,81.9 87.2,82.1C87.3,82.4 87.5,82.7 87.6,82.9C87.7,83.2 87.9,83.5 88,83.7C88.1,84 88.3,84.3 88.4,84.5C88.5,84.8 88.7,85.1 88.8,85.3C88.9,85.6 89.1,85.9 89.2,86.1C89.3,86.4 89.5,86.7 89.6,86.9C89.7,87.2 89.9,87.5 90,87.7C90.1,88 90.3,88.3 90.4,88.5C90.5,88.8 90.7,89.1 90.8,89.3C90.9,89.6 91.1,89.9 91.2,90.1C91.3,90.4 91.5,90.7 91.6,90.9C91.7,91.2 91.9,91.5 92,91.7C92.1,92 92.3,92.3 92.4,92.5C92.5,92.8 92.6,93.1 92.8,93.3C92.9,93.6 93,93.9 93.1,94.1C93.2,94.4 93.3,94.7 93.4,94.9C93.5,95.2 93.6,95.5 93.7,95.7C93.8,96 93.9,96.3 94,96.5C94.1,96.8 94.1,97.1 94.2,97.3C94.3,97.6 94.3,97.9 94.4,98.1C94.5,98.4 94.5,98.7 94.5,98.9C94.5,99.2 94.6,99.5 94.6,99.7L94.6,100.5C94.6,100.8 94.5,101.1 94.5,101.3C94.4,101.6 94.4,101.9 94.3,102.1C94.2,102.4 94.1,102.7 94,102.9C93.9,103.2 93.7,103.5 93.5,103.7C93.3,103.9 93.1,104.3 92.8,104.5C92.5,104.8 92.2,105.1 91.9,105.3C91.5,105.6 91.1,105.9 90.5,106.1C89.9,106.4 89.3,106.7 88.6,106.9C88.1,107.1 87.6,107.2 87.1,107.4C85.9,107.7 84.8,107.5 83.9,106.9C83.5,106.7 83.2,106.4 82.9,106.1C82.6,105.8 82.4,105.6 82.1,105.3C81.9,105 81.6,104.8 81.4,104.5C81.2,104.2 81,104 80.8,103.7C80.6,103.4 80.4,103.2 80.2,102.9C80,102.6 79.9,102.4 79.7,102.1C79.5,101.8 79.4,101.6 79.2,101.3C79,101 78.9,100.7 78.7,100.5C78.5,100.2 78.4,99.9 78.2,99.7C78,99.4 77.9,99.1 77.7,98.9C77.5,98.6 77.4,98.3 77.2,98.1C77,97.8 76.9,97.5 76.7,97.3C76.5,97 76.4,96.7 76.2,96.5C76,96.2 75.8,95.9 75.7,95.7C75.5,95.4 75.3,95.1 75.1,94.9C74.9,94.6 74.7,94.3 74.5,94.1C74.3,93.8 74.1,93.5 73.9,93.3C73.7,93.1 73.4,92.7 73.2,92.5C72.9,92.2 72.7,91.9 72.5,91.7C72.2,91.4 72,91.1 71.7,90.9C71.4,90.6 71.1,90.3 70.8,90.1C70.5,89.8 70.1,89.5 69.8,89.3C69.4,89 69,88.7 68.6,88.5C68.1,88.2 67.7,87.9 67.2,87.7C66.6,87.4 66,87.1 65.4,86.9C64.4,86.5 63.4,86.3 62.3,86.1C60.2,85.7 57.9,85.7 55.2,86.1C54,86.3 52.7,86.6 51.3,86.9L51.2,86.9C51.8,87.2 52.3,87.4 52.8,87.7C53.3,88 53.8,88.2 54.2,88.5C54.6,88.8 55,89 55.4,89.3C55.7,89.6 56,89.9 56.3,90.1C56.6,90.4 56.9,90.6 57.2,90.9C57.5,91.2 57.7,91.5 57.9,91.7C58.1,92 58.4,92.2 58.5,92.5C58.7,92.8 58.9,93.1 59,93.3C59.2,93.6 59.3,93.8 59.5,94.1C59.6,94.4 59.8,94.6 60,94.9C60.1,95.2 60.2,95.5 60.3,95.7C60.4,96 60.6,96.2 60.6,96.5C60.7,96.8 60.8,97.1 60.9,97.3C61,97.6 61.1,97.9 61.1,98.1C61.2,98.4 61.3,98.6 61.3,98.9C61.4,99.2 61.4,99.5 61.5,99.7C61.6,100 61.6,100.3 61.6,100.5C61.7,100.8 61.7,101 61.7,101.3C61.7,101.6 61.8,101.9 61.8,102.1C61.8,102.4 61.9,102.7 61.9,102.9C61.9,103.2 62,103.4 62,103.7L62,111.7C62,112 62,112.3 61.9,112.5C61.9,112.8 61.9,113.1 61.8,113.3C61.8,113.6 61.8,113.9 61.7,114.1C61.7,114.4 61.7,114.7 61.6,114.9C61.6,115.2 61.5,115.5 61.5,115.7C61.5,115.9 61.4,116.3 61.4,116.5C61.4,116.8 61.3,117.1 61.3,117.3C61.3,117.6 61.2,117.9 61.2,118.1C61.2,118.4 61.1,118.7 61.1,118.9C61.1,119.2 61,119.5 61,119.7C61,120 60.9,120.3 60.9,120.5C60.9,120.8 60.8,121.1 60.8,121.3C60.8,121.6 60.7,121.9 60.7,122.1C60.7,122.4 60.6,122.7 60.6,122.9C60.6,123.2 60.5,123.5 60.5,123.7C60.5,124 60.4,124.3 60.4,124.5C60.4,124.8 60.3,125.1 60.3,125.3C60.3,125.6 60.2,125.9 60.2,126.1C60.2,126.4 60.1,126.7 60.1,126.9C60.1,127.2 60,127.5 60,127.7C60,128 59.9,128.3 59.9,128.5C59.9,128.8 59.8,129.1 59.8,129.3C59.8,129.6 59.7,129.9 59.7,130.1C59.7,130.4 59.6,130.7 59.6,130.9C59.6,131.2 59.6,131.5 59.5,131.7C59.5,132 59.5,132.3 59.4,132.5C59.4,132.8 59.3,133.1 59.3,133.3C59.3,133.6 59.3,133.9 59.2,134.1C59.2,134.4 59.2,134.7 59.1,134.9C59.1,135.2 59.1,135.5 59,135.7C59,136 59,136.3 58.9,136.5L58.9,143.7C58.9,144 58.9,144.3 59,144.5C59,144.8 59,145.1 59.1,145.3C59.1,145.6 59.1,145.9 59.2,146.1C59.2,146.4 59.2,146.7 59.3,146.9C59.3,147.2 59.4,147.5 59.4,147.7C59.4,148 59.5,148.3 59.5,148.5C59.5,148.8 59.6,149.1 59.6,149.3C59.6,149.6 59.7,149.9 59.7,150.1C59.7,150.4 59.8,150.7 59.8,150.9C59.8,151.2 59.9,151.5 59.9,151.7C60,152 60,152.3 60,152.5C60,152.7 60.1,153.1 60.1,153.3C60.2,153.6 60.2,153.9 60.3,154.1C60.4,154.4 60.4,154.7 60.5,154.9C60.6,155.2 60.6,155.5 60.7,155.7C60.8,156 60.8,156.3 60.9,156.5C61,156.8 61.1,157.1 61.1,157.3C61.2,157.6 61.3,157.9 61.4,158.1C61.5,158.4 61.6,158.7 61.7,158.9C61.8,159.2 61.9,159.5 62,159.7C62.1,160 62.2,160.3 62.3,160.5C62.4,160.8 62.5,161.1 62.6,161.3C62.7,161.6 62.8,161.9 62.9,162.1C63,162.4 63.1,162.7 63.2,162.9C63.3,163.2 63.5,163.5 63.6,163.7C63.7,164 63.9,164.3 64,164.5C64.1,164.8 64.3,165.1 64.4,165.3C64.5,165.6 64.7,165.9 64.8,166.1C64.9,166.4 65.1,166.7 65.3,166.9C65.5,167.2 65.6,167.5 65.8,167.7C66,168 66.1,168.3 66.3,168.5C66.5,168.8 66.6,169.1 66.8,169.3C67,169.6 67.2,169.9 67.4,170.1C67.6,170.4 67.8,170.7 68,170.9C68.2,171.2 68.4,171.5 68.6,171.7C68.8,171.9 69.1,172.3 69.3,172.5C69.5,172.8 69.8,173.1 70,173.3C70.3,173.6 70.5,173.9 70.7,174.1C71,174.4 71.2,174.6 71.4,174.9L71.5,174.9C71.8,175.2 72.1,175.4 72.4,175.7C72.7,176 73,176.3 73.3,176.5C73.6,176.8 73.9,177.1 74.2,177.3C74.5,177.6 74.8,177.9 75.1,178.1C75.5,178.4 75.9,178.6 76.3,178.9C76.7,179.2 77.1,179.5 77.5,179.7C77.9,180 78.3,180.3 78.7,180.5C79.2,180.8 79.6,181.1 80.1,181.3C80.6,181.6 81.1,181.9 81.5,182.1C82,182.4 82.5,182.7 82.9,182.9C83.5,183.2 84.1,183.5 84.7,183.7C85.3,184 85.9,184.3 86.6,184.5C87.3,184.8 88,185.1 88.7,185.3C89.5,185.6 90.4,185.9 91.2,186.1C91.7,186.3 92.2,186.4 92.7,186.6C92.4,186.4 92.2,186.3 91.9,186.1C91.4,185.8 91,185.6 90.5,185.3C90.1,185 89.8,184.7 89.4,184.5C89,184.2 88.7,184 88.3,183.7C88,183.4 87.6,183.2 87.3,182.9C87,182.6 86.7,182.3 86.4,182.1C86.1,181.8 85.8,181.6 85.5,181.3C85.2,181 84.9,180.8 84.6,180.5C84.3,180.2 84.1,179.9 83.9,179.7C83.7,179.5 83.4,179.1 83.2,178.9C82.9,178.6 82.7,178.4 82.5,178.1C82.3,177.8 82,177.5 81.8,177.3C81.6,177 81.4,176.7 81.2,176.5C81,176.3 80.8,175.9 80.6,175.7C80.4,175.5 80.2,175.2 80,174.9C79.8,174.6 79.7,174.3 79.5,174.1C79.3,173.8 79.2,173.5 79,173.3C78.8,173 78.6,172.7 78.5,172.5C78.3,172.2 78.2,171.9 78,171.7C77.8,171.4 77.7,171.1 77.5,170.9C77.4,170.6 77.2,170.3 77,170.1C76.9,169.8 76.7,169.5 76.5,169.3C76.4,169 76.2,168.7 76.1,168.5C76,168.2 75.9,167.9 75.7,167.7C75.6,167.4 75.4,167.1 75.3,166.9C75.2,166.6 75,166.3 74.9,166.1C74.8,165.8 74.7,165.5 74.6,165.3C74.5,165 74.4,164.7 74.3,164.5C74.2,164.2 74.1,163.9 74,163.7C73.9,163.4 73.8,163.1 73.7,162.9C73.6,162.6 73.5,162.3 73.4,162.1C73.3,161.8 73.3,161.5 73.2,161.3C73.1,161 73.1,160.7 73,160.5C72.9,160.2 72.9,159.9 72.8,159.7C72.7,159.4 72.7,159.1 72.6,158.9C72.5,158.6 72.5,158.3 72.5,158.1C72.4,157.8 72.4,157.5 72.4,157.3C72.4,157 72.3,156.7 72.3,156.5C72.3,156.2 72.2,155.9 72.2,155.7C72.2,155.4 72.2,155.1 72.1,154.9C72.1,154.6 72,154.3 72,154.1C72,153.8 71.9,153.5 71.9,153.3L71.9,150.9C71.9,150.6 72,150.3 72,150.1C72,149.8 72.1,149.5 72.1,149.3C72.2,149 72.2,148.7 72.2,148.5C72.3,148.2 72.4,147.9 72.5,147.7C72.6,147.4 72.7,147.1 72.8,146.9C72.9,146.6 73,146.3 73.1,146.1L73.1,146L73.1,146.1C73.2,146.4 73.4,146.7 73.5,146.9C73.6,147.2 73.8,147.5 73.9,147.7C74,148 74.2,148.3 74.4,148.5C74.6,148.8 74.7,149.1 74.9,149.3C75.1,149.6 75.3,149.9 75.5,150.1C75.8,150.4 76,150.7 76.3,150.9C76.7,151.3 77.1,151.5 77.5,151.7C78.5,152.2 79.6,152 80.6,151.7C81.4,151.4 82.2,151.1 83.1,150.9L83.2,150.9C83.2,150.6 83.2,150.4 83.1,150.1C83.1,149.8 83,149.5 83,149.3C83,149 82.9,148.7 82.9,148.5L82.9,146.1C82.9,145.8 82.9,145.5 83,145.3C83,145 83,144.7 83.1,144.5C83.1,144.2 83.1,143.9 83.2,143.7C83.2,143.4 83.3,143.1 83.3,142.9C83.3,142.6 83.4,142.3 83.4,142.1C83.5,141.8 83.5,141.5 83.6,141.3C83.7,141 83.7,140.7 83.8,140.5C83.9,140.2 83.9,139.9 84,139.7C84.1,139.4 84.2,139.1 84.3,138.9C84.4,138.6 84.5,138.3 84.6,138.1C84.7,137.8 84.9,137.5 85,137.3C85.1,137 85.3,136.7 85.4,136.5C85.5,136.2 85.7,135.9 85.9,135.7C86.1,135.4 86.3,135.1 86.5,134.9C86.7,134.6 86.9,134.3 87.1,134.1C87.3,133.8 87.6,133.5 87.8,133.3C88.1,133 88.3,132.7 88.6,132.5C88.9,132.2 89.1,131.9 89.4,131.7C89.7,131.4 90,131.1 90.3,130.9C90.6,130.6 91,130.3 91.3,130.1C91.7,129.8 92,129.5 92.4,129.3C92.8,129 93.2,128.7 93.6,128.5C94,128.2 94.4,127.9 94.8,127.7C95.2,127.4 95.6,127.1 96,126.9C96.4,126.6 96.8,126.3 97.2,126.1C97.6,125.8 98,125.5 98.4,125.3C98.8,125 99.2,124.8 99.6,124.5C100,124.2 100.4,124 100.7,123.7C101.1,123.4 101.4,123.2 101.8,122.9C102.1,122.6 102.5,122.4 102.8,122.1C103.1,121.8 103.4,121.6 103.7,121.3C104,121 104.3,120.8 104.6,120.5C104.9,120.2 105.9,119.2 106.2,118.9C106.4,118.6 106.7,118.3 106.9,118.1C107.1,117.8 107.3,117.6 107.5,117.3C107.7,117 107.9,116.8 108.1,116.5C108.3,116.2 108.4,116 108.6,115.7C108.8,115.4 108.9,115.2 109.1,114.9C109.2,114.6 109.4,114.4 109.6,114.1C109.7,113.8 109.9,113.6 110,113.3C110.1,113 110.3,112.8 110.4,112.5C110.5,112.2 110.6,111.9 110.7,111.7C110.8,111.4 110.9,111.2 111,110.9C111.1,110.6 111.2,110.3 111.3,110.1C111.4,109.8 111.5,109.6 111.6,109.3C111.7,109 111.8,108.8 111.8,108.5C111.9,108.2 111.9,107.9 112,107.7C112.1,107.4 112.1,107.2 112.2,106.9C112.3,106.6 112.3,106.4 112.4,106.1C112.5,105.8 112.5,105.5 112.5,105.3C112.6,105 112.6,104.8 112.6,104.5C112.6,104.3 112.7,104.1 112.7,103.9C113.3,104.1 113.8,104.3 114.3,104.5C115,104.8 115.7,105 116.4,105.3C117,105.6 117.6,105.8 118.2,106.1C118.8,106.4 119.3,106.6 119.8,106.9C120.3,107.2 120.8,107.4 121.3,107.7C121.8,108 122.2,108.3 122.6,108.5C123,108.8 123.4,109 123.8,109.3C124.2,109.6 124.5,109.9 124.8,110.1C125.1,110.4 125.5,110.6 125.8,110.9C126.1,111.2 127.2,112.3 127.4,112.5C127.7,112.8 127.9,113.1 128.1,113.3C128.3,113.6 128.6,113.9 128.8,114.1C129,114.4 129.2,114.7 129.4,114.9C129.6,115.2 129.8,115.5 129.9,115.7C130.1,116 130.2,116.3 130.4,116.5C130.5,116.8 130.7,117.1 130.8,117.3C130.9,117.6 131.1,117.9 131.2,118.1C131.3,118.4 131.4,118.7 131.5,118.9C131.6,119.2 131.7,119.5 131.8,119.7C131.9,120 132,120.3 132,120.5C132.1,120.8 132.2,121.1 132.2,121.3C132.3,121.6 132.3,121.9 132.4,122.1C132.5,122.4 132.5,122.7 132.6,122.9C132.7,123.2 132.7,123.5 132.7,123.7C132.7,124 132.8,124.3 132.8,124.5C132.8,124.8 132.9,125.1 132.9,125.3C132.9,125.6 132.9,125.9 133,126.1C133,126.4 133,126.7 133.1,126.9L133.1,130.1C133.1,130.4 133.1,130.7 133,130.9C133,131.2 132.9,131.5 132.9,131.7C132.9,132 132.8,132.3 132.8,132.5C132.8,132.8 132.7,133.1 132.7,133.3C132.7,133.6 132.6,133.9 132.6,134.1C132.6,134.4 132.5,134.7 132.5,134.9C132.5,135.2 132.4,135.5 132.4,135.7C132.4,136 132.3,136.3 132.3,136.5C132.3,136.8 132.2,137.1 132.2,137.3C132.2,137.6 132.1,137.9 132.1,138.1C132.1,138.4 132,138.7 132,138.9C132,139.2 131.9,139.5 131.9,139.7C131.9,140 131.8,140.3 131.8,140.5C131.8,140.8 131.7,141.1 131.7,141.3C131.7,141.6 131.6,141.9 131.6,142.1L131.6,144.5C131.6,144.8 131.7,145.1 131.7,145.3C131.7,145.6 131.8,145.9 131.8,146.1C131.9,146.4 131.9,146.7 132.1,146.9C132.2,147.2 132.4,147.5 132.5,147.7C132.7,148 132.9,148.3 133.1,148.5C133.4,148.8 133.7,149.1 134.2,149.3C134.8,149.6 135.6,149.9 136.5,150C136.7,150 137,150.1 137.2,150.1C138.1,150.2 139,150.2 139.9,150.1C140.7,150 141.6,149.7 142.4,149.3C142.8,149.1 143.2,148.8 143.5,148.5C143.8,148.2 144,148 144.3,147.7C144.5,147.4 144.7,147.2 144.9,146.9C145.1,146.6 145.2,146.4 145.4,146.1C145.5,145.8 145.7,145.6 145.8,145.3C145.9,145 146,144.8 146.1,144.5C146.2,144.2 146.3,144 146.4,143.7C146.5,143.4 146.6,143.2 146.7,142.9C146.8,142.6 146.9,142.4 146.9,142.1C147,141.8 147,141.6 147.1,141.3C147.1,141.2 147.2,141 147.2,140.9C147.3,141 147.3,141.2 147.4,141.3C147.5,141.6 147.6,141.9 147.7,142.1C147.8,142.4 147.9,142.7 148,142.9C148.1,143.2 148.2,143.5 148.3,143.7C148.4,144 148.5,144.3 148.6,144.5C148.7,144.8 148.8,145.1 148.9,145.3C149,145.6 149.1,145.9 149.2,146.1C149.3,146.4 149.4,146.7 149.5,146.9C149.6,147.2 149.7,147.5 149.8,147.7C149.9,148 150,148.3 150.1,148.5C150.2,148.8 150.3,149.1 150.4,149.3C150.5,149.6 150.5,149.9 150.6,150.1C150.7,150.4 150.7,150.7 150.8,150.9C150.9,151.2 150.9,151.5 151,151.7C151.1,152 151.1,152.3 151.2,152.5C151.3,152.7 151.3,153.1 151.4,153.3C151.5,153.5 151.5,153.9 151.6,154.1C151.7,154.4 151.7,154.7 151.7,154.9C151.8,155.2 151.8,155.5 151.8,155.7C151.8,156 151.9,156.3 151.9,156.5C151.9,156.8 152,157.1 152,157.3C152,157.6 152.1,157.9 152.1,158.1C152.1,158.4 152.2,158.7 152.2,158.9L152.2,162.1C152.5,162.3 152.5,162.6 152.5,162.9Z" style="fill-rule:nonzero;"/>
</svg>
