<?xml version="1.0" encoding="UTF-8" standalone="no"?>
<!DOCTYPE svg PUBLIC "-//W3C//DTD SVG 1.1//EN" "http://www.w3.org/Graphics/SVG/1.1/DTD/svg11.dtd">
<svg width="100%" height="100%" viewBox="0 0 960 960" version="1.1" xmlns="http://www.w3.org/2000/svg" xmlns:xlink="http://www.w3.org/1999/xlink" xml:space="preserve" xmlns:serif="http://www.serif.com/" style="fill-rule:evenodd;clip-rule:evenodd;stroke-linejoin:round;">
    <path d="M112.662,31.85L112.893,31.87L112.962,31.864C114.25,31.78 115.554,31.748 116.87,31.77L117.662,31.79L911.3,60.116C935.944,60.995 956.17,81.109 956.17,106.352L956.17,853.178C956.17,878.421 935.944,898.535 911.3,899.414L117.586,927.742C116.004,927.802 114.441,927.769 112.899,927.668L112.789,927.659L112.368,927.693C109.334,927.918 106.241,927.802 103.14,927.291L102.968,927.261L39.372,919.115C35.865,918.666 32.434,917.754 29.169,916.404L28.471,916.108C19.643,912.259 14.242,906.699 10.334,900.346C8.641,897.595 7.517,895.094 6.632,892.588C5.793,890.211 5.303,888.213 4.925,886.175C4.577,884.3 4.373,882.597 4.225,880.794C4.032,878.454 3.939,875.834 3.939,873.178L3.939,95.883C3.951,93.298 4.05,90.763 4.246,88.485C4.4,86.689 4.611,84.99 4.972,83.105C5.366,81.044 5.877,79.021 6.748,76.617C7.661,74.099 8.818,71.588 10.549,68.838C14.457,62.627 19.835,57.187 28.471,53.422C30.136,52.697 31.849,52.085 33.597,51.592L97.808,33.483L98.216,33.359C103.058,31.927 107.939,31.466 112.662,31.85ZM116.235,71.758L115.786,71.758C112.592,71.89 110.057,74.488 109.939,77.808L109.939,881.489C109.939,884.997 112.637,887.76 116.009,887.772L116.235,887.772L909.873,859.439C913.351,859.315 916.17,856.512 916.17,853.178L916.17,106.352C916.17,103.018 913.351,100.214 909.873,100.09L116.235,71.758ZM89.95,77.255L44.454,90.09C44.178,90.211 43.953,92.85 43.94,96.05L43.94,873.48L43.948,874.337C43.994,877.139 44.203,879.33 44.454,879.439L90.211,885.305C90.032,884.059 89.939,882.784 89.939,881.489L89.939,78.041L89.942,77.647L89.95,77.255ZM224.342,158.607L820.627,174.974C832.924,175.312 842.945,185.279 842.945,197.495L842.945,560.997C842.945,573.287 832.81,583.178 820.439,583.286L224.154,588.48C211.591,588.587 201.475,578.324 201.475,565.703L201.475,181.143C201.475,168.448 211.706,158.26 224.342,158.607ZM223.793,178.598C222.52,178.565 221.475,179.605 221.475,181.143L221.475,565.703C221.475,567.313 222.636,568.491 223.981,568.479L820.265,563.286C821.804,563.273 822.945,562.159 822.945,560.997L822.945,197.495C822.945,196.259 821.69,195.011 820.078,194.967L223.793,178.598Z" style="fill-rule:nonzero;"/>
    <g id="Stroke-28" transform="matrix(1,0,0,0.973239,31.7074,102.048)">
        <path d="M372,810.896L598.748,810.896L598.748,486L372,486L372,810.896Z" style="fill:none;stroke:black;stroke-width:12px;"/>
    </g>
    <g id="Fill-31" transform="matrix(1.39534,0,0,1.39534,-284.908,-82.3185)">
        <path d="M533.111,284.126C536.695,287.286 538.503,289.093 538.536,289.543L535.939,326.689C535.842,327.141 533.782,328.947 529.756,332.106C526.172,328.947 524.362,327.141 524.331,326.689L526.928,289.543C527.023,289.093 529.085,287.286 533.111,284.126M481.381,382.022L518.526,382.022C518.972,382.087 520.644,384.022 523.538,387.826C520.112,391.632 518.17,393.567 517.715,393.63L480.569,393.63C480.121,393.567 478.45,391.632 475.557,387.826C478.982,384.022 480.923,382.087 481.381,382.022M484.7,329.011L522.621,329.011C524.119,330.624 525.662,332.558 527.245,334.815C525.345,337.073 523.532,339.008 521.809,340.619L483.888,340.619C482.388,339.008 480.847,337.073 479.264,334.815C481.163,332.558 482.974,330.624 484.7,329.011M488.795,276L525.94,276C526.386,276.065 528.057,278 530.952,281.804C527.525,285.61 525.584,287.545 525.129,287.608L487.983,287.608C487.535,287.545 485.864,285.61 482.97,281.804C486.396,278 488.338,276.065 488.795,276M476.78,337.137C480.364,340.297 482.172,342.104 482.205,342.554L479.607,379.7C479.511,380.152 477.451,381.959 473.425,385.117C469.84,381.959 468.032,380.152 468,379.7L470.597,342.554C470.693,342.104 472.754,340.297 476.78,337.137"/>
    </g>
    <g id="Fill-32" transform="matrix(1.39534,0,0,1.39534,-284.908,-82.3185)">
        <path d="M604.377,337.523C607.961,340.684 609.77,342.49 609.803,342.94L607.205,380.087C607.108,380.539 605.048,382.345 601.022,385.504C597.438,382.345 595.629,380.539 595.598,380.087L598.194,342.94C598.289,342.49 600.351,340.684 604.377,337.523M608.111,284.126C611.695,287.286 613.503,289.092 613.536,289.543L610.939,326.689C610.843,327.141 608.782,328.947 604.756,332.106C601.172,328.947 599.362,327.141 599.331,326.689L601.929,289.543C602.023,289.092 604.085,287.286 608.111,284.126M556.381,382.022L593.526,382.022C593.973,382.086 595.645,384.021 598.538,387.826C595.112,391.631 593.17,393.566 592.715,393.629L555.569,393.629C555.121,393.566 553.45,391.631 550.558,387.826C553.982,384.021 555.924,382.086 556.381,382.022M563.795,276L600.94,276C601.387,276.065 603.058,277.999 605.952,281.804C602.525,285.609 600.584,287.544 600.129,287.608L562.983,287.608C562.535,287.544 560.864,285.609 557.971,281.804C561.397,277.999 563.338,276.065 563.795,276M551.78,337.136C555.364,340.297 557.172,342.103 557.205,342.554L554.607,379.7C554.512,380.151 552.451,381.958 548.426,385.117C544.841,381.958 543.032,380.151 543,379.7L545.598,342.554C545.693,342.103 547.754,340.297 551.78,337.136M555.487,284.126C559.071,287.286 560.879,289.092 560.912,289.543L558.314,326.689C558.219,327.141 556.157,328.947 552.133,332.106C548.547,328.947 546.739,327.141 546.707,326.689L549.305,289.543C549.399,289.092 551.461,287.286 555.487,284.126"/>
    </g>
    <g id="Fill-33" transform="matrix(1.39534,0,0,1.39534,-284.908,-82.3185)">
        <path d="M679.671,337.523C683.255,340.684 685.063,342.49 685.096,342.94L682.498,380.087C682.402,380.539 680.342,382.345 676.316,385.504C672.732,382.345 670.922,380.539 670.891,380.087L673.488,342.94C673.583,342.49 675.645,340.684 679.671,337.523M631.675,382.022L668.82,382.022C669.266,382.086 670.938,384.021 673.832,387.826C670.405,391.631 668.463,393.566 668.008,393.629L630.862,393.629C630.415,393.566 628.744,391.631 625.851,387.826C629.276,384.021 631.218,382.086 631.675,382.022M634.994,329.01L672.914,329.01C674.412,330.624 675.955,332.558 677.539,334.815C675.64,337.073 673.826,339.007 672.103,340.619L634.182,340.619C632.682,339.007 631.141,337.073 629.558,334.815C631.457,332.558 633.269,330.624 634.994,329.01M639.088,276L676.233,276C676.68,276.065 678.352,277.999 681.245,281.804C677.819,285.609 675.877,287.544 675.422,287.608L638.276,287.608C637.828,287.544 636.158,285.609 633.265,281.804C636.691,277.999 638.631,276.065 639.088,276M630.781,284.126C634.364,287.286 636.173,289.092 636.206,289.543L633.608,326.689C633.512,327.141 631.451,328.947 627.426,332.106C623.841,328.947 622.032,327.141 622,326.689L624.598,289.543C624.693,289.092 626.754,287.286 630.781,284.126"/>
    </g>
    <g id="Fill-34" transform="matrix(1.39534,0,0,1.39534,-284.908,-82.3185)">
        <path d="M613.004,391.502C613.004,393.436 611.436,395.004 609.502,395.004C607.567,395.004 606,393.436 606,391.502C606,389.568 607.567,388 609.502,388C611.436,388 613.004,389.568 613.004,391.502"/>
    </g>
    <g id="Stroke-35" transform="matrix(1.39534,0,0,1.39534,-284.908,-82.3185)">
        <path d="M714.109,284.055C714.109,288.504 710.503,292.11 706.054,292.11C701.606,292.11 698,288.504 698,284.055C698,279.607 701.606,276 706.054,276C710.503,276 714.109,279.607 714.109,284.055Z" style="fill:none;stroke:black;stroke-width:4px;stroke-linejoin:miter;"/>
    </g>
    <g id="Stroke-36" transform="matrix(1,0,0,0.930014,31.7074,125.718)">
        <path d="M676,578.5L742.093,578.5" style="fill:none;stroke:black;stroke-width:10px;stroke-linejoin:miter;"/>
    </g>
    <g id="Stroke-37" transform="matrix(1,0,0,0.930014,31.7074,125.718)">
        <path d="M708.5,546L708.5,612.094" style="fill:none;stroke:black;stroke-width:10px;stroke-linejoin:miter;"/>
    </g>
    <g id="Stroke-38" transform="matrix(1,0,0,0.930014,31.7074,125.718)">
        <path d="M676,740.5L742.093,740.5" style="fill:none;stroke:black;stroke-width:10px;stroke-linejoin:miter;"/>
    </g>
    <g transform="matrix(0.999928,-0.0119733,0.0111353,0.929947,475.7,642.404)">
        <g id="Mode">
            <text x="0px" y="0px" style="font-family:'Arial-BoldMT', 'Arial', sans-serif;font-weight:700;font-size:33.35px;">Mode</text>
        </g>
    </g>
    <g transform="matrix(0.999928,-0.0119733,0.0111353,0.929947,476.145,679.602)">
        <g id="Menu">
            <text x="0px" y="0px" style="font-family:'Arial-BoldMT', 'Arial', sans-serif;font-weight:700;font-size:33.35px;">Menu</text>
        </g>
    </g>
    <g transform="matrix(0.999928,-0.0119733,0.0111353,0.929947,481.537,795.797)">
        <g id="BOOST">
            <g transform="matrix(33.3497,0,0,33.3497,66.6994,0)">
            </g>
            <text x="0px" y="0px" style="font-family:'Arial-BoldMT', 'Arial', sans-serif;font-weight:700;font-size:33.35px;">F<tspan x="18.531px 42.615px " y="0px 0px ">AN</tspan></text>
        </g>
    </g>
    <g transform="matrix(0.999928,-0.0119733,0.0111353,0.929947,479.572,833.024)">
        <g id="OK">
            <g transform="matrix(33.3497,0,0,33.3497,75.9324,0)">
            </g>
            <text x="0px" y="0px" style="font-family:'Arial-BoldMT', 'Arial', sans-serif;font-weight:700;font-size:33.35px;">Auto</text>
        </g>
    </g>
    <g id="Fill-40" transform="matrix(1,0,0,0.930014,31.7074,125.718)">
        <path d="M269.661,732.757C269.661,720.336 276.083,709.421 285.783,703.133C286.244,702.834 286.053,702.116 285.505,702.076C284.824,702.027 284.138,702 283.444,702C267.182,702 254,715.183 254,731.445C254,747.192 266.36,760.051 281.908,760.85C282.262,759.984 281.97,760.698 282.323,759.831C274.585,753.359 269.661,743.634 269.661,732.757"/>
    </g>
    <g id="Fill-42" transform="matrix(1,0,0,0.930014,31.7074,125.718)">
        <path d="M279.081,570.041C279.081,574.482 275.481,578.082 271.04,578.082C266.6,578.082 263,574.482 263,570.041C263,565.601 266.6,562 271.04,562C275.481,562 279.081,565.601 279.081,570.041"/>
    </g>
    <g id="Stroke-44" transform="matrix(1,0,0,0.930014,31.7074,125.718)">
        <path d="M271.5,555.151L271.5,540" style="fill:none;stroke:black;stroke-width:5px;stroke-linejoin:miter;"/>
    </g>
    <g id="Stroke-46" transform="matrix(1,0,0,0.930014,31.7074,125.718)">
        <path d="M260.714,559.714L250,549" style="fill:none;stroke:black;stroke-width:5px;stroke-linejoin:miter;"/>
    </g>
    <g id="Stroke-48" transform="matrix(1,0,0,0.930014,31.7074,125.718)">
        <path d="M257.152,569.5L242,569.5" style="fill:none;stroke:black;stroke-width:5px;stroke-linejoin:miter;"/>
    </g>
    <g id="Stroke-50" transform="matrix(1,0,0,0.930014,31.7074,125.718)">
        <path d="M260.714,580L250,590.714" style="fill:none;stroke:black;stroke-width:5px;stroke-linejoin:miter;"/>
    </g>
    <g id="Stroke-52" transform="matrix(1,0,0,0.930014,31.7074,125.718)">
        <path d="M271.5,585L271.5,600.152" style="fill:none;stroke:black;stroke-width:5px;stroke-linejoin:miter;"/>
    </g>
    <g id="Stroke-54" transform="matrix(1,0,0,0.930014,31.7074,125.718)">
        <path d="M282,580L292.714,590.714" style="fill:none;stroke:black;stroke-width:5px;stroke-linejoin:miter;"/>
    </g>
    <g id="Stroke-56" transform="matrix(1,0,0,0.930014,31.7074,125.718)">
        <path d="M286,569.5L301.152,569.5" style="fill:none;stroke:black;stroke-width:5px;stroke-linejoin:miter;"/>
    </g>
    <g id="Stroke-58" transform="matrix(1,0,0,0.930014,31.7074,125.718)">
        <path d="M282,559.714L292.714,549" style="fill:none;stroke:black;stroke-width:5px;stroke-linejoin:miter;"/>
    </g>
</svg>
