<?xml version="1.0" encoding="UTF-8" standalone="no"?>
<!DOCTYPE svg PUBLIC "-//W3C//DTD SVG 1.1//EN" "http://www.w3.org/Graphics/SVG/1.1/DTD/svg11.dtd">
<svg width="100%" height="100%" viewBox="0 0 471 194" version="1.1" xmlns="http://www.w3.org/2000/svg" xmlns:xlink="http://www.w3.org/1999/xlink" xml:space="preserve" xmlns:serif="http://www.serif.com/" style="fill-rule:evenodd;clip-rule:evenodd;stroke-linecap:round;stroke-linejoin:round;stroke-miterlimit:1.5;">
    <g transform="matrix(1,0,0,1,-344.416,-387.287)">
        <g transform="matrix(0.898898,0,0,0.845642,35.5582,88.5329)">
            <path d="M858.871,414.82L858.871,520.643C858.871,549.846 836.567,573.554 809.095,573.554L401.484,573.554C374.011,573.554 351.707,549.846 351.707,520.643L351.707,414.82C351.707,385.618 374.011,361.909 401.484,361.909L809.095,361.909C836.567,361.909 858.871,385.618 858.871,414.82Z" style="fill:none;stroke:rgb(35,31,32);stroke-width:16.71px;"/>
        </g>
        <g transform="matrix(2.15161,0,0,2.15161,-479.037,-514.621)">
            <text x="412.383px" y="482.663px" style="font-family:'Arial-BoldMT', 'Arial', sans-serif;font-weight:700;font-size:50px;fill:rgb(35,31,32);">i</text>
            <g transform="matrix(66.6667,0,0,66.6667,578.13,482.663)">
            </g>
            <text x="426.275px" y="482.663px" style="font-family:'Arial-BoldMT', 'Arial', sans-serif;font-weight:700;font-size:66.667px;fill:rgb(35,31,32);">zone</text>
        </g>
    </g>
</svg>
