<?xml version="1.0" encoding="UTF-8" standalone="no"?>
<!DOCTYPE svg PUBLIC "-//W3C//DTD SVG 1.1//EN" "http://www.w3.org/Graphics/SVG/1.1/DTD/svg11.dtd">
<svg width="100%" height="100%" viewBox="0 0 250 250" version="1.1" xmlns="http://www.w3.org/2000/svg" xmlns:xlink="http://www.w3.org/1999/xlink" xml:space="preserve" xmlns:serif="http://www.serif.com/" style="fill-rule:evenodd;clip-rule:evenodd;stroke-linejoin:round;stroke-miterlimit:2;">
    <rect x="0" y="0" width="250" height="250" style="fill:none;"/>
    <path d="M60.93,175.31L60.93,160.75L176.64,160.75L176.64,169.75C176.64,170.01 176.64,170.28 176.77,170.41L60.93,175.31ZM60.93,142.48L176.64,142.48L176.64,154.66L60.93,154.66L60.93,142.48ZM60.93,124.21L176.64,124.21L176.64,136.39L60.93,136.39L60.93,124.21ZM60.93,106.34L176.64,106.34L176.64,118.25L60.93,118.25L60.93,106.34ZM60.93,88.2L176.64,88.2L176.64,100.25L60.93,100.25L60.93,88.2ZM60.93,69.93L176.64,69.93L176.64,82.11L60.93,82.11L60.93,69.93ZM60.93,56.03L176.64,56.03L176.64,63.84L60.93,63.84L60.93,56.03ZM208.41,183.78L208.41,38.68C208.41,36.83 207.22,35.64 205.5,35.64L36.96,35.64C35.11,35.64 33.92,36.83 33.92,38.68L33.92,52.98C33.92,54.7 35.11,56.02 36.96,56.02L54.83,56.02L54.83,63.83L44.64,63.83C42.79,63.83 41.6,65.02 41.6,66.87C41.6,68.33 43.06,69.91 44.64,69.91L54.83,69.91L54.83,82.09L44.64,82.09C42.79,82.09 41.6,83.28 41.6,85.13C41.6,86.85 43.06,88.17 44.64,88.17L54.83,88.17L54.83,100.22L44.64,100.22C42.79,100.22 41.6,101.41 41.6,103.26C41.6,105.11 43.06,106.3 44.64,106.3L54.83,106.3L54.83,118.21L44.64,118.21C42.79,118.21 41.6,119.4 41.6,121.12C41.6,122.97 43.06,124.16 44.64,124.16L54.83,124.16L54.83,136.34L44.64,136.34C42.79,136.34 41.6,137.53 41.6,139.38C41.6,141.23 43.06,142.42 44.64,142.42L54.83,142.42L54.83,154.6L44.64,154.6C42.79,154.6 41.6,155.79 41.6,157.64C41.6,159.36 43.06,160.68 44.64,160.68L54.83,160.68L54.83,175.51L44.5,175.91C42.65,175.91 41.46,177.23 41.59,178.95C41.72,180.8 42.91,181.99 44.77,181.86L192.78,175.77C194.63,175.64 196.09,174.45 195.96,172.59C195.83,170.73 194.64,169.55 192.78,169.68L182.59,170.08C182.72,169.95 182.72,169.82 182.72,169.68L182.72,160.68L192.65,160.68C194.5,160.68 195.69,159.36 195.69,157.64C195.69,155.79 194.5,154.6 192.65,154.6L182.72,154.6L182.72,142.42L192.65,142.42C194.5,142.42 195.69,141.23 195.69,139.38C195.69,137.53 194.5,136.34 192.65,136.34L182.72,136.34L182.72,124.16L192.65,124.16C194.5,124.16 195.69,122.97 195.69,121.12C195.69,119.4 194.5,118.21 192.65,118.21L182.72,118.21L182.72,106.3L192.65,106.3C194.5,106.3 195.69,105.11 195.69,103.26C195.69,101.41 194.5,100.22 192.65,100.22L182.72,100.22L182.72,88.17L192.65,88.17C194.5,88.17 195.69,86.85 195.69,85.13C195.69,83.28 194.5,82.09 192.65,82.09L182.72,82.09L182.72,69.91L192.65,69.91C194.5,69.91 195.69,68.72 195.69,66.87C195.69,65.02 194.5,63.83 192.65,63.83L182.72,63.83L182.72,56.02L202.45,56.02L202.45,183.77C197.82,184.96 194.77,188.93 194.77,193.7L194.77,203.76C194.77,209.58 199.67,214.35 205.49,214.35C211.31,214.35 216.08,209.58 216.08,203.76L216.08,193.43C216.08,188.93 213.04,184.96 208.4,183.77" style="fill-rule:nonzero;"/>
</svg>
