<?xml version="1.0" encoding="UTF-8"?>
<svg id="Livello_1" data-name="Livello 1" xmlns="http://www.w3.org/2000/svg" viewBox="0 0 250 250">
  <defs>
    <style>
      .cls-1 {
        fill: none;
      }

      .cls-2 {
        fill: #1074b7;
      }
    </style>
  </defs>
  <rect class="cls-1" width="250" height="250"/>
  <path class="cls-2" d="m60.93,175.31v-14.56h115.71v9c0,.26,0,.53.13.66l-115.84,4.9Zm0-32.83h115.71v12.18H60.93v-12.18Zm0-18.27h115.71v12.18H60.93v-12.18Zm0-17.87h115.71v11.91H60.93v-11.91Zm0-18.14h115.71v12.05H60.93v-12.05Zm0-18.27h115.71v12.18H60.93v-12.18Zm0-13.9h115.71v7.81H60.93v-7.81Zm147.48,127.75V38.68c0-1.85-1.19-3.04-2.91-3.04H36.96c-1.85,0-3.04,1.19-3.04,3.04v14.3c0,1.72,1.19,3.04,3.04,3.04h17.87v7.81h-10.19c-1.85,0-3.04,1.19-3.04,3.04,0,1.46,1.46,3.04,3.04,3.04h10.19v12.18h-10.19c-1.85,0-3.04,1.19-3.04,3.04,0,1.72,1.46,3.04,3.04,3.04h10.19v12.05h-10.19c-1.85,0-3.04,1.19-3.04,3.04s1.46,3.04,3.04,3.04h10.19v11.91h-10.19c-1.85,0-3.04,1.19-3.04,2.91,0,1.85,1.46,3.04,3.04,3.04h10.19v12.18h-10.19c-1.85,0-3.04,1.19-3.04,3.04s1.46,3.04,3.04,3.04h10.19v12.18h-10.19c-1.85,0-3.04,1.19-3.04,3.04,0,1.72,1.46,3.04,3.04,3.04h10.19v14.83l-10.33.4c-1.85,0-3.04,1.32-2.91,3.04.13,1.85,1.32,3.04,3.18,2.91l148.01-6.09c1.85-.13,3.31-1.32,3.18-3.18s-1.32-3.04-3.18-2.91l-10.19.4c.13-.13.13-.26.13-.4v-9h9.93c1.85,0,3.04-1.32,3.04-3.04,0-1.85-1.19-3.04-3.04-3.04h-9.93v-12.18h9.93c1.85,0,3.04-1.19,3.04-3.04s-1.19-3.04-3.04-3.04h-9.93v-12.18h9.93c1.85,0,3.04-1.19,3.04-3.04,0-1.72-1.19-2.91-3.04-2.91h-9.93v-11.91h9.93c1.85,0,3.04-1.19,3.04-3.04s-1.19-3.04-3.04-3.04h-9.93v-12.05h9.93c1.85,0,3.04-1.32,3.04-3.04,0-1.85-1.19-3.04-3.04-3.04h-9.93v-12.18h9.93c1.85,0,3.04-1.19,3.04-3.04s-1.19-3.04-3.04-3.04h-9.93v-7.81h19.73v127.75c-4.63,1.19-7.68,5.16-7.68,9.93v10.06c0,5.82,4.9,10.59,10.72,10.59s10.59-4.77,10.59-10.59v-10.33c0-4.5-3.04-8.47-7.68-9.66"/>
</svg>